<svg width="32" height="32" viewBox="0 0 32 32" fill="none" xmlns="http://www.w3.org/2000/svg">
<path fill-rule="evenodd" clip-rule="evenodd" d="M4.85539 11.3837C3.27682 11.7927 2.11108 13.2269 2.11108 14.9334V18.4889C2.11108 20.2395 3.33785 21.7036 4.97859 22.0683C5.73686 25.4117 8.56049 27.9709 12.0373 28.3336C12.4415 29.5967 13.625 30.5112 15.0222 30.5112H17.8667C19.5972 30.5112 21 29.1083 21 27.3778C21 25.6473 19.5972 24.2445 17.8667 24.2445H15.0222C13.6616 24.2445 12.5036 25.1117 12.0707 26.3235C9.64333 25.9987 7.66697 24.2489 7.01063 21.9432C8.42918 21.4368 9.44442 20.0814 9.44442 18.4889V14.9334C9.44442 13.2872 8.3596 11.8944 6.86586 11.4309C7.48905 6.94353 11.3411 3.48889 15.9999 3.48889C20.6588 3.48889 24.5108 6.94354 25.134 11.4309C23.6403 11.8945 22.5555 13.2873 22.5555 14.9334V18.4889C22.5555 20.514 24.1972 22.1556 26.2222 22.1556C28.2473 22.1556 29.8889 20.514 29.8889 18.4889V14.9334C29.8889 13.2269 28.7231 11.7927 27.1445 11.3837C26.4878 5.81146 21.7487 1.48889 15.9999 1.48889C10.2512 1.48889 5.51203 5.81147 4.85539 11.3837ZM4.11108 14.9334C4.11108 14.0129 4.85728 13.2667 5.77775 13.2667C6.69823 13.2667 7.44442 14.0129 7.44442 14.9334V18.4889C7.44442 19.4094 6.69823 20.1556 5.77775 20.1556C4.85728 20.1556 4.11108 19.4094 4.11108 18.4889V14.9334ZM19 27.3778C19 26.7519 18.4926 26.2445 17.8667 26.2445H15.0222C14.3963 26.2445 13.8889 26.7519 13.8889 27.3778C13.8889 28.0038 14.3963 28.5112 15.0222 28.5112H17.8667C18.4926 28.5112 19 28.0038 19 27.3778ZM24.5555 14.9334C24.5555 14.0129 25.3017 13.2667 26.2222 13.2667C27.1427 13.2667 27.8889 14.0129 27.8889 14.9334V18.4889C27.8889 19.4094 27.1427 20.1556 26.2222 20.1556C25.3017 20.1556 24.5555 19.4094 24.5555 18.4889V14.9334Z" fill="#050505"/>
</svg>
