<svg width="180" height="40" viewBox="0 0 180 40" fill="none" xmlns="http://www.w3.org/2000/svg">
<path d="M166.944 38.4365H165.146V25.9578L177.202 35.3908V26.6346H179V39.0499L166.944 29.7649V38.4365Z" fill="#050505"/>
<path d="M140.446 32.5355C140.446 29.0246 144.211 26.1693 148.864 26.1693C153.517 26.1693 157.282 29.0246 157.282 32.5355C157.282 36.0465 153.517 38.8806 148.864 38.8806C144.211 38.8806 140.446 36.0465 140.446 32.5355ZM142.35 32.5355C142.35 35.1793 145.269 37.2944 148.864 37.2944C152.46 37.2944 155.378 35.1793 155.378 32.5355C155.378 29.8917 152.46 27.7556 148.864 27.7556C145.269 27.7556 142.35 29.8917 142.35 32.5355Z" fill="#050505"/>
<path d="M133.496 35.2005C133.496 37.8866 130.365 38.8806 127.256 38.8806C124.993 38.8806 122.688 38.373 121.525 37.5693V35.5177C122.54 36.4061 124.993 37.2944 127.299 37.2944C129.921 37.2944 131.592 36.3215 131.592 35.3485C131.592 32.324 121.229 34.566 121.229 29.5956C121.229 27.2691 124.274 26.275 127.066 26.275C129.096 26.275 131.233 26.6557 132.248 27.4172V29.3207C130.894 28.3689 128.991 27.8613 126.855 27.8613C125.691 27.8613 123.174 28.2209 123.174 29.6168C123.174 32.747 133.496 30.5897 133.496 35.2005Z" fill="#050505"/>
<path d="M100.354 32.5355C100.354 35.1793 103.272 37.2944 106.868 37.2944C109.554 37.2944 112.473 36.3003 112.473 33.7411H108.475V32.1548H114.271C114.271 33.72 114.165 34.714 113.805 35.5389C112.79 37.8654 109.893 38.8806 106.868 38.8806C102.215 38.8806 98.4502 36.0465 98.4502 32.5355C98.4502 29.0246 102.215 26.1693 106.868 26.1693C109.025 26.1693 110.971 26.7826 112.473 27.7979V30.0398C111.331 28.6439 109.237 27.7556 106.868 27.7556C103.272 27.7556 100.354 29.8917 100.354 32.5355Z" fill="#050505"/>
<path d="M90.371 38.4365H88.5732V26.6346H90.371V38.4365Z" fill="#050505"/>
<path d="M70.5461 25.9578L74.9454 35.0947L79.387 26.6346H81.3539L74.9454 39.0499L70.5461 30.061L66.1468 39.0499L59.7383 26.6346H61.7053L66.1468 35.0947L70.5461 25.9578Z" fill="#050505"/>
<path d="M46.7418 38.4365H40.2275V26.6346H46.7418C50.3163 26.6346 54.9482 28.2632 54.9482 32.5355C54.9482 36.8079 50.3163 38.4365 46.7418 38.4365ZM42.0253 28.2209V36.8502H46.5515C49.2799 36.8502 53.0446 35.983 53.0446 32.5355C53.0446 29.088 49.2799 28.2209 46.5515 28.2209H42.0253Z" fill="#050505"/>
<path d="M30.24 32.747V26.6346H32.0378V33.0431C32.0378 37.0829 28.8018 38.8806 25.5658 38.8806C22.3298 38.8806 19.0938 37.0829 19.0938 33.0431V26.6346H20.8915V32.747C20.8915 35.8561 23.2392 37.2944 25.5658 37.2944C27.8923 37.2944 30.24 35.8561 30.24 32.747Z" fill="#050505"/>
<path d="M2.79778 26.6346V36.8502H12.5058V38.4365H1V26.6346H2.79778Z" fill="#050505"/>
<path d="M134.608 13.4153L132.261 9.77739H125.239L122.891 13.4153H120.755L128.75 1L136.745 13.4153H134.608ZM128.75 4.3206L126.254 8.19112H131.245L128.75 4.3206Z" fill="#050505"/>
<path d="M109.431 3.19963H103.403V1.61336H117.236V3.19963H111.229V13.4152H109.431V3.19963Z" fill="#050505"/>
<path d="M90.9624 3.19963H84.9346V1.61336H98.7669V3.19963H92.7602V13.4152H90.9624V3.19963Z" fill="#050505"/>
<path d="M62.5674 7.51431C62.5674 4.00335 66.3321 1.14806 70.9852 1.14806C75.6383 1.14806 79.4031 4.00335 79.4031 7.51431C79.4031 11.0253 75.6383 13.8594 70.9852 13.8594C66.3321 13.8594 62.5674 11.0253 62.5674 7.51431ZM64.4709 7.51431C64.4709 10.1581 67.3897 12.2731 70.9852 12.2731C74.5808 12.2731 77.4995 10.1581 77.4995 7.51431C77.4995 4.87052 74.5808 2.73433 70.9852 2.73433C67.3897 2.73433 64.4709 4.87052 64.4709 7.51431Z" fill="#050505"/>
<path d="M46.6943 1.61336V11.829H56.4023V13.4152H44.8965V1.61336H46.6943Z" fill="#050505"/>
</svg>
