<svg width="96" height="96" viewBox="0 0 96 96" fill="none" xmlns="http://www.w3.org/2000/svg">
<path d="M48 0C74.5097 0 96 21.4903 96 48C96 74.5097 74.5097 96 48 96C21.4903 96 0 74.5097 0 48C0 21.4903 21.4903 0 48 0ZM47.999 22.4004C41.0501 22.4004 40.1771 22.4305 37.4473 22.5547C34.7219 22.6795 32.8611 23.1111 31.2334 23.7441C29.5496 24.398 28.1212 25.2728 26.6982 26.6963C25.2744 28.1191 24.4001 29.5474 23.7441 31.2305C23.1095 32.8588 22.6774 34.72 22.5547 37.4443C22.4326 40.1748 22.4004 41.048 22.4004 48C22.4004 54.9526 22.431 55.823 22.5547 58.5537C22.68 61.2788 23.1117 63.139 23.7441 64.7666C24.3985 66.4504 25.2738 67.8788 26.6973 69.3018C28.1196 70.7257 29.5478 71.603 31.2305 72.2568C32.8592 72.8898 34.7198 73.3215 37.4443 73.4463C40.175 73.5706 41.0474 73.6006 47.999 73.6006C54.9518 73.6006 55.8224 73.5705 58.5527 73.4463C61.278 73.3215 63.1408 72.8899 64.7695 72.2568C66.4527 71.603 67.8793 70.7258 69.3018 69.3018C70.7256 67.8789 71.5999 66.4506 72.2559 64.7676C72.8852 63.1393 73.3173 61.278 73.4453 58.5537C73.568 55.8234 73.6006 54.9522 73.6006 48C73.6006 41.0478 73.568 40.175 73.4453 37.4443C73.3173 34.7192 72.8852 32.8591 72.2559 31.2314C71.5999 29.5477 70.7257 28.1192 69.3018 26.6963C67.8778 25.2724 66.4538 24.3975 64.7686 23.7441C63.1366 23.1111 61.275 22.6795 58.5498 22.5547C55.8197 22.4304 54.9498 22.4004 47.999 22.4004Z" fill="#050505"/>
<path d="M45.7056 27.0137C46.3871 27.0126 47.1481 27.0137 48.0024 27.0137C54.8369 27.0137 55.6474 27.0375 58.3462 27.1602C60.8422 27.2743 62.1977 27.6916 63.1001 28.042C64.2946 28.506 65.1461 29.0611 66.0415 29.957C66.9374 30.8529 67.4925 31.7059 67.9575 32.9004C68.3079 33.8017 68.7257 35.1566 68.8394 37.6523C68.962 40.351 68.9888 41.1622 68.9888 47.9941C68.9888 54.8262 68.962 55.6372 68.8394 58.3359C68.7252 60.8318 68.3079 62.1866 67.9575 63.0879C67.4935 64.2825 66.9375 65.1329 66.0415 66.0283C65.1456 66.9243 64.2952 67.4794 63.1001 67.9434C62.1988 68.2954 60.8422 68.7111 58.3462 68.8252C55.6479 68.9478 54.8369 68.9746 48.0024 68.9746C41.1669 68.9746 40.3562 68.9479 37.6577 68.8252C35.1617 68.71 33.8068 68.2928 32.9038 67.9424C31.7092 67.4784 30.8555 66.9243 29.9595 66.0283C29.0636 65.1324 28.5095 64.2809 28.0444 63.0859C27.6941 62.1846 27.2762 60.8297 27.1626 58.334C27.0399 55.6353 27.0151 54.8242 27.0151 47.9883C27.0151 41.152 27.0399 40.3451 27.1626 37.6465C27.2767 35.1505 27.694 33.796 28.0444 32.8936C28.5084 31.6989 29.0635 30.8452 29.9595 29.9492C30.8555 29.0532 31.7091 28.4983 32.9038 28.0332C33.8062 27.6812 35.1618 27.2651 37.6577 27.1504C40.0191 27.0437 40.9346 27.0122 45.7056 27.0068V27.0137ZM48.0015 34.8535C40.7415 34.8539 34.855 40.74 34.855 48C34.855 55.2603 40.7421 61.1445 48.0024 61.1445C55.2627 61.1444 61.147 55.2603 61.147 48C61.1469 40.7397 55.2618 34.8535 48.0015 34.8535ZM61.6675 31.2637C59.9715 31.2637 58.5952 32.6384 58.5952 34.335C58.5952 36.031 59.9715 37.4072 61.6675 37.4072C63.3633 37.407 64.7387 36.0308 64.7388 34.335C64.7388 32.6391 63.3633 31.2629 61.6675 31.2627V31.2637Z" fill="#050505"/>
<path d="M48.0027 39.4668C52.7152 39.4668 56.5361 43.2871 56.5361 48.0002C56.5361 52.7128 52.7152 56.5336 48.0027 56.5336C43.2895 56.5336 39.4692 52.7128 39.4692 48.0002C39.4692 43.2871 43.2895 39.4668 48.0027 39.4668V39.4668Z" fill="#050505"/>
</svg>
