<svg width="141" height="40" viewBox="0 0 141 40" fill="none" xmlns="http://www.w3.org/2000/svg">
<path d="M0.546457 34.836C0.645101 34.2612 0.727015 33.7204 0.830776 33.1839C0.931025 32.6655 1.30939 32.3857 1.90653 32.3839C3.46552 32.3794 5.02463 32.3735 6.58345 32.3902C6.89863 32.3936 7.00956 32.3065 7.06545 31.9885C7.74701 28.1093 8.44775 24.2334 9.13959 20.356C9.9103 16.0366 10.6766 11.7163 11.4456 7.39659C11.7822 5.50593 12.1184 3.6152 12.4599 1.72543C12.5366 1.30059 12.8449 1.03559 13.2715 1.00428C13.3833 0.996076 13.4961 1.00219 13.6085 1.00219C29.1704 1.00215 44.7323 1.00215 60.2942 1.00217C61.2516 1.00218 61.5344 1.35802 61.3621 2.31874C61.0381 4.12571 60.7224 5.93417 60.4022 7.74182C60.3879 7.82241 60.3626 7.90106 60.3703 7.87075C59.9962 7.78704 59.6521 7.64872 59.3058 7.64312C57.7893 7.61863 56.2722 7.63207 54.7553 7.63284C54.0623 7.63318 53.8119 7.82588 53.6941 8.50239C53.2036 11.3198 52.7221 14.1387 52.2368 16.957C52.125 17.6061 52.0163 18.2559 51.8937 18.9029C51.8742 19.0058 51.7884 19.0961 51.7332 19.1922C51.6334 19.1158 51.4922 19.0608 51.4399 18.9598C50.2425 16.6484 49.0545 14.3322 47.8655 12.0166C47.2134 10.7468 46.5592 9.47821 45.9135 8.20526C45.7164 7.81678 45.4369 7.62129 44.9826 7.62675C43.6345 7.64299 42.286 7.63127 40.9377 7.63313C40.3311 7.63397 40.0548 7.8515 39.9509 8.439C39.4625 11.1994 38.9811 13.9611 38.4961 16.7221C37.725 21.1121 36.9531 25.5019 36.1816 29.8919C36.1477 30.0852 36.0975 30.2777 36.0858 30.4724C36.0588 30.9214 36.4186 31.3218 36.8871 31.3249C38.5865 31.3363 40.286 31.3344 41.9854 31.3263C42.4042 31.3243 42.7188 31.0358 42.7931 30.6073C43.3865 27.1825 43.9754 23.757 44.5656 20.3317C44.5942 20.166 44.6075 19.9959 44.6551 19.8359C44.6861 19.7317 44.7663 19.6421 44.8244 19.5459C44.9219 19.6269 45.0564 19.6885 45.1109 19.7921C45.606 20.7334 46.0891 21.6811 46.5719 22.6289C47.9503 25.335 49.3299 28.0405 50.7013 30.7502C50.9089 31.1604 51.2068 31.3417 51.6716 31.3357C52.9635 31.3188 54.2558 31.3334 55.5479 31.3261C55.7522 31.3249 55.9561 31.2741 56.1995 31.241C56.0823 31.9186 55.9622 32.629 55.8362 33.3384C55.564 34.8702 55.2838 36.4007 55.0167 37.9335C54.8654 38.8014 54.6566 38.9857 53.7617 38.9857C36.2616 38.9858 18.7615 38.9811 1.26136 39C0.409213 39.0009 -0.175234 38.4621 0.0476935 37.5597C0.265715 36.6771 0.379656 35.7689 0.546457 34.836ZM35.6103 12.3579C34.5836 10.2288 32.9167 8.8087 30.7273 7.98228C28.3753 7.09445 25.9494 7.0255 23.516 7.49545C19.9935 8.17571 17.4247 10.1345 15.8951 13.4118C15.2356 14.8249 14.9587 16.3375 14.6766 17.8538C14.3218 19.7605 14.0035 21.6653 14.2092 23.6175C14.5537 26.8858 16.1921 29.2516 19.1566 30.6657C21.4077 31.7395 23.8026 31.8925 26.2343 31.5894C30.4861 31.0594 33.4485 28.7927 34.9486 24.7827C35.8849 22.2797 36.3139 19.6439 36.4306 16.9676C36.4993 15.3935 36.2913 13.8653 35.6103 12.3579Z" fill="#050505"/>
<path d="M117.807 34.6599C115.785 34.66 113.804 34.6613 111.823 34.6596C110.885 34.6588 110.573 34.3028 110.736 33.3752C111.505 28.9839 112.284 24.5943 113.057 20.2038C113.546 17.4287 114.035 14.6535 114.517 11.8773C114.652 11.1046 114.885 10.891 115.657 10.8908C118.677 10.8903 121.697 10.888 124.718 10.8915C127.067 10.8942 129.215 11.4735 130.976 13.1228C132.409 14.4652 133.276 16.1373 133.588 18.0517C134.232 22.0078 133.7 25.7836 131.453 29.1752C129.333 32.3739 126.266 34.1185 122.476 34.5217C120.946 34.6844 119.393 34.6206 117.807 34.6599ZM120.344 28.8721C120.524 28.8487 120.706 28.8332 120.885 28.8006C123.023 28.4104 124.66 27.3675 125.486 25.2674C126.133 23.6225 126.38 21.916 126.246 20.1582C126.107 18.3515 125.168 17.2136 123.403 16.8274C122.633 16.6589 121.823 16.6723 121.012 16.6014C120.277 20.7409 119.557 24.7993 118.834 28.8775C119.341 28.8775 119.803 28.8775 120.344 28.8721Z" fill="#050505"/>
<path d="M80.8918 34.66C80.3861 34.66 79.9225 34.6668 79.4591 34.6583C78.7361 34.6451 78.3959 34.2627 78.5179 33.5451C78.9195 31.182 79.3386 28.8219 79.7526 26.4609C80.4981 22.2085 81.2446 17.9562 81.9911 13.704C82.1002 13.0829 82.2179 12.4632 82.3202 11.841C82.4429 11.0944 82.7039 10.8645 83.4764 10.8638C85.5552 10.8619 87.634 10.8545 89.7127 10.8661C91.2002 10.8744 92.6892 10.8727 94.1742 10.9439C95.5462 11.0097 96.8513 11.3776 98.0521 12.0713C99.822 13.0937 100.837 14.6241 101.129 16.6398C101.352 18.174 101.269 19.6874 100.796 21.1706C100.131 23.2618 98.8257 24.8217 96.8913 25.8573C96.1928 26.2312 96.0829 26.517 96.3439 27.2537C97.0587 29.2716 97.7745 31.2891 98.4878 33.3076C98.7873 34.1551 98.4385 34.6569 97.5429 34.6588C95.7591 34.6627 93.9753 34.6614 92.1914 34.6591C91.5062 34.6583 91.2959 34.4969 91.0904 33.8573C90.4096 31.7389 89.7224 29.6226 89.0478 27.5023C88.9727 27.2661 88.8711 27.1682 88.6103 27.1794C88.0788 27.2022 87.5456 27.1862 86.969 27.1862C86.7959 28.1709 86.6247 29.1461 86.4531 30.1213C86.2344 31.3633 86.0195 32.6059 85.7946 33.8466C85.6878 34.4355 85.4212 34.6553 84.8106 34.6581C83.5184 34.6641 82.2261 34.66 80.8918 34.66ZM90.5346 22.016C90.632 22.0063 90.7294 21.996 90.827 21.9871C92.6247 21.8221 93.7465 20.7013 93.9062 18.9103C94.0221 17.6109 93.3518 16.6236 92.0612 16.4265C91.0335 16.2696 89.9786 16.2911 88.9171 16.2324C88.5548 18.2071 88.2085 20.095 87.8561 22.0161C88.7725 22.0161 89.6124 22.0161 90.5346 22.016Z" fill="#050505"/>
<path d="M61.4952 12.6904C63.7665 10.9398 66.369 10.4488 69.1253 10.4996C71.0805 10.5356 72.9772 10.839 74.7238 11.7809C77.3944 13.221 78.7991 15.4559 78.9109 18.4944C78.9129 18.5503 78.9088 18.6066 78.9047 18.6625C78.8907 18.8557 78.8754 19.0487 78.8593 19.259C76.5166 19.259 74.1909 19.259 71.8448 19.259C71.8955 18.5752 71.8075 17.9035 71.3506 17.4015C70.995 17.0109 70.5449 16.6416 70.0627 16.4432C68.719 15.8905 67.1526 16.3291 66.2007 17.4299C65.3882 18.3695 64.9623 19.4985 64.7341 20.6889C64.4627 22.1048 64.2063 23.5316 64.0827 24.9657C63.9558 26.4365 64.3248 27.8066 65.6077 28.7235C66.7886 29.5675 68.0888 29.4414 69.3417 28.9279C70.5477 28.4336 71.2443 27.4931 71.3637 26.1209C70.2958 26.1209 69.2371 26.1209 68.1405 26.1209C68.3752 24.8211 68.589 23.5662 68.8349 22.3175C68.9138 21.9164 69.2126 21.7082 69.632 21.7081C72.3706 21.7073 75.1093 21.7047 77.8479 21.7101C78.387 21.7111 78.7775 22.1193 78.6769 22.645C78.314 24.5413 78.0824 26.4842 77.497 28.312C76.2726 32.1356 73.475 34.2362 69.5599 34.859C67.2455 35.2272 64.9369 35.1403 62.7048 34.3547C59.1931 33.1189 57.213 30.6425 56.7702 26.9311C56.5507 25.0903 56.8425 23.2972 57.155 21.4978C57.4504 19.7972 57.772 18.1105 58.5219 16.5327C59.231 15.0409 60.152 13.7239 61.4952 12.6904Z" fill="#050505"/>
<path d="M101.706 27.6095C102.639 22.2875 103.567 17.0017 104.496 11.716C104.594 11.1605 104.87 10.8983 105.438 10.8949C107.249 10.8841 109.061 10.8824 110.872 10.8952C111.532 10.8999 111.868 11.3149 111.754 11.9818C111.351 14.3438 110.933 16.7034 110.518 19.0634C109.803 23.1348 109.085 27.2058 108.37 31.2771C108.222 32.1189 108.082 32.9621 107.932 33.8036C107.824 34.409 107.543 34.6555 106.929 34.6577C105.16 34.6639 103.391 34.6645 101.622 34.6579C100.863 34.6551 100.542 34.2432 100.676 33.483C101.019 31.5374 101.36 29.5915 101.706 27.6095Z" fill="#050505"/>
<path d="M139.298 2.50848C139.046 3.93748 138.801 5.33077 138.548 6.72273C138.445 7.2934 138.118 7.59753 137.545 7.60065C135.439 7.61208 133.334 7.61393 131.228 7.6004C130.523 7.59587 130.102 7.07366 130.219 6.40441C130.484 4.90049 130.75 3.39684 131.024 1.89464C131.138 1.27143 131.468 1.00317 132.097 1.00254C134.09 1.00053 136.084 1.00176 138.077 1.00185C139.142 1.0019 139.497 1.42733 139.298 2.50848Z" fill="#050505"/>
<path d="M22.193 17.1369C22.4939 15.9245 22.863 14.7867 23.7615 13.9005C24.7136 12.9613 25.8405 12.7181 27.0898 13.1049C28.2808 13.4736 28.8283 14.4118 29.0512 15.5652C29.2532 16.6108 29.1916 17.6614 28.9816 18.6997C28.71 20.0427 28.4597 21.3927 28.1114 22.7162C27.9586 23.2968 27.6412 23.8565 27.3026 24.3613C26.4747 25.5958 25.1886 26.0749 23.7909 25.7463C22.6138 25.4695 21.7877 24.4562 21.5546 23.0321C21.3583 21.8325 21.5464 20.6564 21.747 19.4812C21.8789 18.7085 22.0352 17.94 22.193 17.1369Z" fill="#050505"/>
</svg>
