<svg width="32" height="32" viewBox="0 0 32 32" fill="none" xmlns="http://www.w3.org/2000/svg">
<path fill-rule="evenodd" clip-rule="evenodd" d="M31 16C31 7.71573 24.2843 1 16 1C7.71573 1 1 7.71573 1 16C1 24.2843 7.71573 31 16 31H16.0041C24.2865 30.9978 31 24.2829 31 16ZM19.1445 25.763C17.9567 28.3129 16.7089 28.9986 16.0021 29H16C15.2937 29 14.0445 28.3154 12.8555 25.7629C11.8971 23.7054 11.2153 20.8685 11.0428 17.6234C14.3456 17.7857 17.6544 17.7857 20.9572 17.6234C20.7847 20.8685 20.1029 23.7054 19.1445 25.763ZM20.9976 15.6189C17.668 15.7872 14.332 15.7872 11.0024 15.6189C11.049 11.8592 11.7772 8.55591 12.8557 6.23941C14.045 3.68484 15.2944 3 16 3C16.7056 3 17.955 3.68484 19.1443 6.2394C20.2228 8.55591 20.951 11.8592 20.9976 15.6189ZM22.9656 17.5046C22.7571 22.0228 21.6181 25.9509 19.9588 28.3862C24.8747 26.8163 28.5194 22.401 28.956 17.077L23.1959 17.4885C23.1191 17.4939 23.0423 17.4993 22.9656 17.5046ZM28.9673 15.0711L23.0534 15.4935C23.0343 15.4949 23.0152 15.4963 22.9961 15.4976C22.9204 10.5615 21.7383 6.22743 19.9573 3.61329C24.9195 5.19728 28.5867 9.68046 28.9673 15.0711ZM9.00387 15.4976C9.07962 10.5615 10.2617 6.22743 12.0427 3.61329C7.0805 5.19727 3.41325 9.68045 3.03267 15.0711L8.9465 15.4935C8.96562 15.4949 8.98475 15.4963 9.00387 15.4976ZM3.04398 17.077C3.4806 22.401 7.12527 26.8164 12.0412 28.3862C10.3819 25.9509 9.24286 22.0228 9.03445 17.5046C8.95763 17.4993 8.88082 17.4939 8.80401 17.4885L3.04398 17.077Z" fill="#050505"/>
</svg>
