<svg width="181" height="40" viewBox="0 0 181 40" fill="none" xmlns="http://www.w3.org/2000/svg">
<path d="M118.983 32.593H118.314V8H118.983V32.593Z" fill="#050505"/>
<path d="M32.9209 10.1168C33.3484 10.0807 34.7956 10.1322 35.2643 10.2095C37.5768 10.5752 39.1837 11.6001 40.0026 13.2276C40.2807 13.7735 40.4816 14.5203 40.5691 15.298L40.6 15.5968H38.1742V15.4268C38.1742 15.1538 37.9888 14.5049 37.8188 14.165C37.3553 13.2431 36.5312 12.6662 35.2128 12.3417C34.811 12.2439 34.605 12.2285 33.6934 12.2285C32.5603 12.2233 32.1844 12.2697 31.5663 12.4911C30.2015 12.9804 29.5165 14.0362 29.5886 15.5453C29.6298 16.4157 29.8512 16.9153 30.4281 17.4406C30.8041 17.7857 31.4067 18.1101 32.1689 18.378C32.4213 18.4655 33.5235 18.7745 34.6153 19.0733C37.345 19.8097 37.9991 20.0467 38.8592 20.6081C40.1829 21.4733 40.7649 22.5292 40.837 24.1721C40.9297 26.4434 39.8893 28.2615 37.9425 29.2195C36.6858 29.8375 35.5836 30.0538 33.884 30.0023C32.8539 29.9766 32.2873 29.889 31.5045 29.6521C29.3826 28.998 27.8477 27.6332 27.1112 25.743C26.9001 25.197 26.7559 24.5378 26.6683 23.6931L26.6477 23.4768H29.0478L29.1096 23.8992C29.2795 25.1043 29.8615 26.1756 30.7113 26.8452C31.556 27.5147 32.5861 27.8649 33.8994 27.937C36.6806 28.0915 38.4318 26.8606 38.4318 24.7387C38.4318 23.5129 37.8446 22.6219 36.6652 22.0399C36.0059 21.7154 35.7896 21.6433 33.5131 21.0046C31.2573 20.3711 30.907 20.2578 30.1036 19.8716C29.3826 19.5265 28.986 19.269 28.5379 18.857C27.5181 17.9093 27.0855 16.6217 27.2143 14.9272C27.3379 13.3049 28.1001 12.0018 29.4186 11.1572C30.2787 10.6061 31.4788 10.2507 32.9209 10.1168Z" fill="#050505"/>
<path d="M54.3412 12.7486C56.1747 10.8327 58.8684 9.88502 61.7629 10.1374C65.1415 10.4361 67.5725 12.1769 68.4481 14.9272C68.5923 15.3907 68.7674 16.2457 68.7674 16.5084V16.6268L67.5725 16.6165L66.3776 16.6011L66.3158 16.2303C65.8986 13.7478 63.7921 12.2439 60.7328 12.249C59.1002 12.2542 57.7147 12.728 56.5353 13.6911C56.1696 13.9898 56.0923 14.0723 55.7061 14.5409C54.5472 15.9573 53.9704 18.0638 54.0528 20.5669C54.1558 23.4717 55.0622 25.6348 56.6898 26.84C57.6735 27.5714 58.7602 27.9267 60.192 27.9937C62.6436 28.1018 64.6831 26.979 65.708 24.955C66.0789 24.2236 66.357 23.173 66.4085 22.3026L66.4291 21.9832H60.4238V19.8716H68.7159V29.5543H66.6042L66.5939 28.107L66.5785 26.6597L66.3364 27.0357C65.4093 28.4881 63.9415 29.4616 62.0564 29.8736C61.5878 29.9766 61.3869 29.9869 60.2178 29.9869C58.7705 29.9869 58.41 29.9405 57.3439 29.6006C55.6855 29.0649 54.3309 28.0143 53.3421 26.5001C52.827 25.7069 52.3326 24.5481 52.0802 23.5335C51.7454 22.2047 51.6115 20.6132 51.7094 19.2432C51.9103 16.5084 52.76 14.407 54.3412 12.7486Z" fill="#050505"/>
<path d="M167.335 10.5494L170.08 14.577C171.589 16.7968 172.913 18.7436 173.026 18.9033L173.232 19.202L174.551 17.2552C175.272 16.1891 176.59 14.2474 177.471 12.9443L179.078 10.5752L179.469 10.5597C179.685 10.5494 179.861 10.5546 179.861 10.57C179.86 10.5812 178.454 12.641 176.74 15.1435C175.025 17.6408 173.609 19.716 173.593 19.748C173.582 19.7789 173.907 20.2888 174.314 20.8811C174.721 21.4734 176.23 23.6674 177.661 25.7584L180.268 29.5594L179.449 29.5285L173.227 20.3351L166.959 29.5543H166.161L166.542 28.998C168.252 26.5261 172.834 19.8475 172.846 19.8098C172.856 19.789 172.671 19.4852 172.429 19.1402C168.896 13.995 166.573 10.5958 166.573 10.5752C166.573 10.5597 166.743 10.5494 166.954 10.5494H167.335Z" fill="#050505"/>
<path d="M2.53371 10.5494V29.5543H0.267578V10.5494H2.53371Z" fill="#050505"/>
<path d="M22.6201 10.5494V29.5543H19.9574L10.1305 13.8405L10.1047 29.5543H7.83861V10.5494L9.26523 10.5597L10.6919 10.5752L13.1795 14.5924C14.5444 16.8019 16.7024 20.2888 17.9694 22.3489L20.2767 26.0829L20.3025 10.5494H22.6201Z" fill="#050505"/>
<path d="M47.3419 10.5494V29.5543H45.0757V10.5494H47.3419Z" fill="#050505"/>
<path d="M76.0809 10.5494V18.893H86.2271V10.5494H88.4933V29.5543H86.2271V21.0562H76.0809V29.5543H73.8147V10.5494H76.0809Z" fill="#050505"/>
<path d="M106.777 10.5494V12.7126H100.339V29.5543H98.0729V12.7126H91.635V10.5494H106.777Z" fill="#050505"/>
<path d="M144.478 10.5494V11.1675H137.834V29.5543H137.164V11.1675H130.52V10.5494H144.478Z" fill="#050505"/>
<path fill-rule="evenodd" clip-rule="evenodd" d="M155.427 10.5494L156.107 12.1821C156.478 13.0834 158.255 17.3531 160.052 21.6742L163.323 29.5285L162.983 29.544C162.798 29.5543 162.633 29.5491 162.622 29.5337C162.607 29.5182 162.046 28.1688 161.371 26.531L160.145 23.5541L155.051 23.5386L149.963 23.5283L147.486 29.5285L147.135 29.544C146.816 29.5594 146.785 29.5491 146.806 29.4667C146.821 29.4148 147.671 27.3548 148.701 24.8932C149.726 22.4261 151.482 18.208 152.6 15.5195C153.717 12.8259 154.645 10.6112 154.66 10.5855C154.67 10.5649 154.851 10.5494 155.057 10.5494H155.427ZM155.041 11.3735C155.026 11.3735 153.939 13.9641 152.631 17.1316L150.251 22.8845L155.02 22.9C157.647 22.9051 159.8 22.9 159.81 22.8897C159.84 22.86 155.08 11.38 155.041 11.3735Z" fill="#050505"/>
</svg>
