<svg width="32" height="32" viewBox="0 0 32 32" fill="none" xmlns="http://www.w3.org/2000/svg">
<path d="M14 2C13.4477 2 13 2.44772 13 3C13 3.55228 13.4477 4 14 4H16V6C16 6.01267 16.0002 6.02528 16.0007 6.03784C14.3774 6.16124 12.8374 6.58277 11.4354 7.24779C11.7907 7.74075 12 8.34593 12 9C12 9.06818 11.9977 9.13583 11.9933 9.20287C13.495 8.43386 15.1969 8 17 8C23.0751 8 28 12.9249 28 19C28 25.0751 23.0751 30 17 30C12.4634 30 8.56822 27.2537 6.88627 23.3329C6.37096 23.7501 5.71467 24 5.00001 24H4.99634C6.95546 28.6979 11.5921 32 17 32C24.1797 32 30 26.1797 30 19C30 12.1565 24.7121 6.54812 17.9993 6.03784C17.9998 6.02528 18 6.01267 18 6V4H20C20.5523 4 21 3.55228 21 3C21 2.44772 20.5523 2 20 2H14Z" fill="#1D1D1B"/>
<path d="M20 18.9998C20 18.3132 19.7693 17.6804 19.3813 17.1748L22 13.4141C22.3905 13.0236 22.3905 12.3904 22 11.9999C21.6095 11.6094 20.9763 11.6094 20.5858 11.9999L17.737 16.091C17.5012 16.0314 17.2543 15.9998 17 15.9998C15.3431 15.9998 14 17.3429 14 18.9998C14 20.6567 15.3431 21.9998 17 21.9998C18.6569 21.9998 20 20.6567 20 18.9998Z" fill="#1D1D1B"/>
<path d="M0 9C0 8.44772 0.447715 8 1 8H9C9.55229 8 10 8.44772 10 9C10 9.55228 9.55229 10 9 10H1C0.447715 10 0 9.55228 0 9Z" fill="#1D1D1B"/>
<path d="M0 15C0 14.4477 0.447715 14 1 14H7C7.55229 14 8 14.4477 8 15C8 15.5523 7.55229 16 7 16H1C0.447715 16 0 15.5523 0 15Z" fill="#1D1D1B"/>
<path d="M0 21C0 20.4477 0.447715 20 1 20H5C5.55229 20 6 20.4477 6 21C6 21.5523 5.55229 22 5 22H1C0.447715 22 0 21.5523 0 21Z" fill="#1D1D1B"/>
</svg>
