<svg width="80" height="80" viewBox="0 0 80 80" fill="none" xmlns="http://www.w3.org/2000/svg">
<g clip-path="url(#clip0_893_42968)">
<path d="M28.7323 40.255C30.0453 40.463 30.7473 41.451 30.7473 42.452C30.7473 43.895 29.7983 45 27.9263 45H23.3633V35.848H27.2503C29.2003 35.848 30.3313 36.628 30.3313 38.24C30.3313 39.124 29.6423 39.956 28.7323 40.151V40.255ZM25.0273 37.226V39.644H27.1723C28.1343 39.644 28.6673 39.059 28.6673 38.344C28.6673 37.681 28.2643 37.226 27.3153 37.226H25.0273ZM27.5623 43.622C28.5503 43.622 29.0833 43.089 29.0833 42.309C29.0833 41.568 28.4983 40.996 27.4323 40.996H25.0273V43.622H27.5623ZM36.4656 41.477C36.1016 41.88 35.3606 41.919 34.3596 42.062C33.7226 42.153 33.2416 42.413 33.2416 43.05C33.2416 43.648 33.7486 44.09 34.5806 43.986C35.5296 43.869 36.4526 43.102 36.4656 41.477ZM31.6816 43.154C31.6816 41.646 32.8646 41.139 34.2036 41.035C35.4256 40.944 36.4786 41.035 36.4656 40.372C36.4526 39.917 36.2186 39.306 34.9836 39.306C33.9176 39.306 33.5146 39.813 33.4236 40.359L31.9026 40.151C32.2276 38.682 33.5926 38.084 35.0616 38.084C36.6216 38.084 38.0256 38.604 38.0256 41.204V45H36.4656V44.441C36.4656 44.129 36.5046 43.895 36.6606 43.44L36.5436 43.401C36.0106 44.558 35.1526 45.156 33.9566 45.156C32.6696 45.156 31.6816 44.298 31.6816 43.154ZM39.6894 45V35.848H46.1374V37.252H41.3534V39.748H45.3054V41.1H41.3534V45H39.6894ZM47.3828 45V38.24H48.9428V45H47.3828ZM48.1628 37.304C47.6038 37.304 47.2008 36.888 47.2008 36.394C47.2008 35.9 47.6038 35.484 48.1628 35.484C48.7478 35.484 49.1248 35.9 49.1248 36.394C49.1248 36.888 48.7478 37.304 48.1628 37.304ZM54.3798 38.084C55.8878 38.084 56.8498 38.994 56.8498 40.944V45H55.2898V41.386C55.2898 39.839 54.7698 39.41 53.9378 39.41C53.0018 39.41 52.0658 40.411 52.0658 41.997V45H50.5058V38.24H52.0658V38.435C52.0658 38.877 52.0138 39.228 51.9488 39.553L52.0658 39.592C52.5208 38.656 53.4178 38.084 54.3798 38.084Z" fill="#050505"/>
<path d="M37.5696 2.15679C39.3969 1.12815 41.6287 1.12815 43.456 2.15679L72.5412 18.5293C74.4295 19.5923 75.5979 21.5909 75.5979 23.7578V56.2422C75.5979 58.4091 74.4295 60.4077 72.5412 61.4707L43.456 77.8432C41.6287 78.8718 39.3969 78.8718 37.5696 77.8432L8.48447 61.4707C6.59614 60.4077 5.42769 58.4091 5.42769 56.2422V23.7578C5.42769 21.5909 6.59613 19.5923 8.48447 18.5293L37.5696 2.15679Z" stroke="#050505" stroke-width="2"/>
</g>
<defs>
<clipPath id="clip0_893_42968">
<rect width="80" height="80" fill="white"/>
</clipPath>
</defs>
</svg>
