<svg width="80" height="80" viewBox="0 0 80 80" fill="none" xmlns="http://www.w3.org/2000/svg">
<g clip-path="url(#clip0_893_42974)">
<path fill-rule="evenodd" clip-rule="evenodd" d="M37.3031 10C37.1679 9.9991 37.0367 9.95413 36.9292 9.87188C36.8247 9.78996 36.7465 9.67904 36.7044 9.55291C36.6623 9.42678 36.6581 9.29101 36.6924 9.16251L37.4153 6.35006L35.2341 4.50946C35.1314 4.41974 35.0579 4.30128 35.0229 4.16929C34.9879 4.03731 34.9931 3.89785 35.0378 3.76885C35.0725 3.64178 35.1462 3.52894 35.2487 3.44644C35.3511 3.36395 35.4768 3.31601 35.608 3.30948L38.4124 3.15948L39.4095 0.425146C39.4512 0.301235 39.5306 0.193562 39.6365 0.117293C39.7424 0.0410234 39.8695 0 39.9999 0C40.1303 0 40.2574 0.0410234 40.3634 0.117293C40.4693 0.193562 40.5487 0.301235 40.5904 0.425146L41.5937 3.15948L44.3981 3.30948C44.5283 3.31915 44.6526 3.36824 44.7544 3.45027C44.8562 3.53229 44.9308 3.64338 44.9683 3.76885C45.0085 3.89661 45.0105 4.03342 44.974 4.16229C44.9374 4.29117 44.8639 4.40645 44.7626 4.49383L42.5815 6.33131L43.3075 9.14376C43.3414 9.27256 43.3367 9.40853 43.2941 9.53468C43.2514 9.66084 43.1726 9.7716 43.0676 9.85313C42.9649 9.93033 42.841 9.97387 42.7127 9.97778C42.5844 9.9817 42.4581 9.9458 42.3509 9.875L39.9921 8.29065L37.649 9.89063C37.547 9.96066 37.4266 9.99873 37.3031 10Z" fill="#050505"/>
<path fill-rule="evenodd" clip-rule="evenodd" d="M37.3031 80C37.1679 79.9991 37.0367 79.9541 36.9292 79.8719C36.8247 79.79 36.7465 79.679 36.7044 79.5529C36.6623 79.4268 36.6581 79.291 36.6924 79.1625L37.4153 76.3501L35.2341 74.5095C35.1314 74.4197 35.0579 74.3013 35.0229 74.1693C34.9879 74.0373 34.9931 73.8978 35.0378 73.7688C35.0725 73.6418 35.1462 73.5289 35.2487 73.4464C35.3511 73.3639 35.4768 73.316 35.608 73.3095L38.4124 73.1595L39.4095 70.4251C39.4512 70.3012 39.5306 70.1936 39.6365 70.1173C39.7424 70.041 39.8695 70 39.9999 70C40.1303 70 40.2574 70.041 40.3634 70.1173C40.4693 70.1936 40.5487 70.3012 40.5904 70.4251L41.5937 73.1595L44.3981 73.3095C44.5283 73.3191 44.6526 73.3682 44.7544 73.4503C44.8562 73.5323 44.9308 73.6434 44.9683 73.7688C45.0085 73.8966 45.0105 74.0334 44.974 74.1623C44.9374 74.2912 44.8639 74.4064 44.7626 74.4938L42.5815 76.3313L43.3075 79.1438C43.3414 79.2726 43.3367 79.4085 43.2941 79.5347C43.2514 79.6608 43.1726 79.7716 43.0676 79.8531C42.9649 79.9303 42.841 79.9739 42.7127 79.9778C42.5844 79.9817 42.4581 79.9458 42.3509 79.875L39.9921 78.2907L37.649 79.8906C37.547 79.9607 37.4266 79.9987 37.3031 80Z" fill="#050505"/>
<path fill-rule="evenodd" clip-rule="evenodd" d="M72.3031 45C72.1679 44.9991 72.0367 44.9541 71.9292 44.8719C71.8247 44.79 71.7465 44.679 71.7044 44.5529C71.6623 44.4268 71.6581 44.291 71.6924 44.1625L72.4153 41.3501L70.2341 39.5095C70.1314 39.4197 70.0579 39.3013 70.0229 39.1693C69.9879 39.0373 69.9931 38.8978 70.0378 38.7688C70.0725 38.6418 70.1462 38.5289 70.2487 38.4464C70.3511 38.3639 70.4768 38.316 70.608 38.3095L73.4124 38.1595L74.4095 35.4251C74.4512 35.3012 74.5306 35.1936 74.6365 35.1173C74.7424 35.041 74.8695 35 74.9999 35C75.1303 35 75.2574 35.041 75.3634 35.1173C75.4693 35.1936 75.5487 35.3012 75.5904 35.4251L76.5937 38.1595L79.3981 38.3095C79.5283 38.3191 79.6526 38.3682 79.7544 38.4503C79.8562 38.5323 79.9308 38.6434 79.9683 38.7688C80.0085 38.8966 80.0105 39.0334 79.974 39.1623C79.9374 39.2912 79.8639 39.4064 79.7626 39.4938L77.5815 41.3313L78.3075 44.1438C78.3414 44.2726 78.3367 44.4085 78.2941 44.5347C78.2514 44.6608 78.1726 44.7716 78.0676 44.8531C77.9649 44.9303 77.841 44.9739 77.7127 44.9778C77.5844 44.9817 77.4581 44.9458 77.3509 44.875L74.9921 43.2907L72.649 44.8906C72.547 44.9607 72.4266 44.9987 72.3031 45Z" fill="#050505"/>
<path fill-rule="evenodd" clip-rule="evenodd" d="M2.30309 45C2.1679 44.9991 2.03666 44.9541 1.92918 44.8719C1.82469 44.79 1.74652 44.679 1.70442 44.5529C1.66231 44.4268 1.65812 44.291 1.69237 44.1625L2.41527 41.3501L0.234111 39.5095C0.131443 39.4197 0.0578857 39.3013 0.0229026 39.1693C-0.0120804 39.0373 -0.00688964 38.8978 0.0378072 38.7688C0.0724538 38.6418 0.146248 38.5289 0.248652 38.4464C0.351056 38.3639 0.476834 38.316 0.608023 38.3095L3.41237 38.1595L4.40946 35.4251C4.45116 35.3012 4.53056 35.1936 4.63649 35.1173C4.74242 35.041 4.86953 35 4.99993 35C5.13033 35 5.25745 35.041 5.36338 35.1173C5.46931 35.1936 5.54871 35.3012 5.5904 35.4251L6.59374 38.1595L9.39808 38.3095C9.52832 38.3191 9.65257 38.3682 9.75438 38.4503C9.8562 38.5323 9.93079 38.6434 9.96829 38.7688C10.0085 38.8966 10.0105 39.0334 9.97396 39.1623C9.9374 39.2912 9.86392 39.4064 9.76264 39.4938L7.58149 41.3313L8.3075 44.1438C8.3414 44.2726 8.33673 44.4085 8.29406 44.5347C8.25139 44.6608 8.17262 44.7716 8.06757 44.8531C7.9649 44.9303 7.84096 44.9739 7.71269 44.9778C7.58442 44.9817 7.45807 44.9458 7.35091 44.875L4.99214 43.2907L2.64896 44.8906C2.54703 44.9607 2.42664 44.9987 2.30309 45Z" fill="#050505"/>
<path fill-rule="evenodd" clip-rule="evenodd" d="M19.8031 14.689C19.6679 14.6881 19.5367 14.6431 19.4292 14.5609C19.3247 14.479 19.2465 14.368 19.2044 14.2419C19.1623 14.1158 19.1581 13.98 19.1924 13.8515L19.9153 11.0391L17.7341 9.19847C17.6314 9.10876 17.5579 8.99029 17.5229 8.8583C17.4879 8.72632 17.4931 8.58686 17.5378 8.45786C17.5725 8.33079 17.6462 8.21795 17.7487 8.13545C17.8511 8.05296 17.9768 8.00502 18.108 7.99849L20.9124 7.84849L21.9095 5.11416C21.9512 4.99025 22.0306 4.88257 22.1365 4.8063C22.2424 4.73003 22.3695 4.68901 22.4999 4.68901C22.6303 4.68901 22.7574 4.73003 22.8634 4.8063C22.9693 4.88257 23.0487 4.99025 23.0904 5.11416L24.0937 7.84849L26.8981 7.99849C27.0283 8.00816 27.1526 8.05725 27.2544 8.13928C27.3562 8.2213 27.4308 8.33239 27.4683 8.45786C27.5085 8.58562 27.5105 8.72243 27.474 8.8513C27.4374 8.98018 27.3639 9.09546 27.2626 9.18284L25.0815 11.0203L25.8075 13.8328C25.8414 13.9616 25.8367 14.0975 25.7941 14.2237C25.7514 14.3498 25.6726 14.4606 25.5676 14.5421C25.4649 14.6193 25.341 14.6629 25.2127 14.6668C25.0844 14.6707 24.9581 14.6348 24.8509 14.564L22.4921 12.9797L20.149 14.5796C20.047 14.6497 19.9266 14.6877 19.8031 14.689Z" fill="#050505"/>
<path fill-rule="evenodd" clip-rule="evenodd" d="M54.8031 75.3111C54.6679 75.3102 54.5367 75.2652 54.4292 75.183C54.3247 75.101 54.2465 74.9901 54.2044 74.864C54.1623 74.7379 54.1581 74.6021 54.1924 74.4736L54.9153 71.6611L52.7341 69.8205C52.6314 69.7308 52.5579 69.6124 52.5229 69.4804C52.4879 69.3484 52.4931 69.2089 52.5378 69.0799C52.5725 68.9529 52.6462 68.84 52.7487 68.7575C52.8511 68.675 52.9768 68.6271 53.108 68.6206L55.9124 68.4706L56.9095 65.7362C56.9512 65.6123 57.0306 65.5046 57.1365 65.4284C57.2424 65.3521 57.3695 65.3111 57.4999 65.3111C57.6303 65.3111 57.7574 65.3521 57.8634 65.4284C57.9693 65.5046 58.0487 65.6123 58.0904 65.7362L59.0937 68.4706L61.8981 68.6206C62.0283 68.6302 62.1526 68.6793 62.2544 68.7613C62.3562 68.8434 62.4308 68.9545 62.4683 69.0799C62.5085 69.2077 62.5105 69.3445 62.474 69.4734C62.4374 69.6023 62.3639 69.7175 62.2626 69.8049L60.0815 71.6424L60.8075 74.4548C60.8414 74.5836 60.8367 74.7196 60.7941 74.8458C60.7514 74.9719 60.6726 75.0827 60.5676 75.1642C60.4649 75.2414 60.341 75.2849 60.2127 75.2889C60.0844 75.2928 59.9581 75.2569 59.8509 75.1861L57.4921 73.6017L55.149 75.2017C55.047 75.2717 54.9266 75.3098 54.8031 75.3111Z" fill="#050505"/>
<path fill-rule="evenodd" clip-rule="evenodd" d="M67.6141 27.5C67.4789 27.4991 67.3477 27.4542 67.2402 27.3719C67.1357 27.29 67.0576 27.1791 67.0155 27.053C66.9733 26.9268 66.9692 26.7911 67.0034 26.6626L67.7263 23.8501L65.5451 22.0095C65.4425 21.9198 65.3689 21.8013 65.3339 21.6693C65.299 21.5374 65.3041 21.3979 65.3488 21.2689C65.3835 21.1418 65.4573 21.029 65.5597 20.9465C65.6621 20.864 65.7879 20.8161 65.9191 20.8095L68.7234 20.6595L69.7205 17.9252C69.7622 17.8013 69.8416 17.6936 69.9475 17.6173C70.0535 17.5411 70.1806 17.5 70.311 17.5C70.4414 17.5 70.5685 17.5411 70.6744 17.6173C70.7803 17.6936 70.8597 17.8013 70.9014 17.9252L71.9048 20.6595L74.7091 20.8095C74.8394 20.8192 74.9636 20.8683 75.0654 20.9503C75.1672 21.0323 75.2418 21.1434 75.2793 21.2689C75.3196 21.3967 75.3216 21.5335 75.285 21.6623C75.2484 21.7912 75.175 21.9065 75.0737 21.9939L72.8925 23.8314L73.6185 26.6438C73.6524 26.7726 73.6478 26.9086 73.6051 27.0347C73.5624 27.1609 73.4837 27.2716 73.3786 27.3532C73.2759 27.4304 73.152 27.4739 73.0237 27.4778C72.8955 27.4817 72.7691 27.4458 72.6619 27.375L70.3032 25.7907L67.96 27.3907C67.8581 27.4607 67.7377 27.4988 67.6141 27.5Z" fill="#050505"/>
<path fill-rule="evenodd" clip-rule="evenodd" d="M6.99206 62.5C6.85686 62.4991 6.72562 62.4542 6.61814 62.3719C6.51365 62.29 6.43549 62.1791 6.39338 62.053C6.35128 61.9268 6.34709 61.7911 6.38133 61.6626L7.10423 58.8501L4.92308 57.0095C4.82041 56.9198 4.74685 56.8013 4.71187 56.6693C4.67688 56.5374 4.68208 56.3979 4.72677 56.2689C4.76142 56.1418 4.83521 56.029 4.93762 55.9465C5.04002 55.864 5.1658 55.8161 5.29699 55.8095L8.10133 55.6595L9.09843 52.9252C9.14013 52.8013 9.21953 52.6936 9.32546 52.6173C9.43138 52.5411 9.5585 52.5 9.6889 52.5C9.8193 52.5 9.94641 52.5411 10.0523 52.6173C10.1583 52.6936 10.2377 52.8013 10.2794 52.9252L11.2827 55.6595L14.087 55.8095C14.2173 55.8192 14.3415 55.8683 14.4433 55.9503C14.5452 56.0323 14.6198 56.1434 14.6573 56.2689C14.6975 56.3967 14.6995 56.5335 14.6629 56.6623C14.6264 56.7912 14.5529 56.9065 14.4516 56.9939L12.2705 58.8314L12.9965 61.6438C13.0304 61.7726 13.0257 61.9086 12.983 62.0347C12.9404 62.1609 12.8616 62.2716 12.7565 62.3532C12.6539 62.4304 12.5299 62.4739 12.4017 62.4778C12.2734 62.4817 12.147 62.4458 12.0399 62.375L9.68111 60.7907L7.33793 62.3907C7.236 62.4607 7.11561 62.4988 6.99206 62.5Z" fill="#050505"/>
<path fill-rule="evenodd" clip-rule="evenodd" d="M6.99206 27.5C6.85686 27.4991 6.72562 27.4541 6.61814 27.3718C6.51365 27.2899 6.43549 27.179 6.39338 27.0529C6.35128 26.9267 6.34709 26.791 6.38133 26.6625L7.10423 23.85L4.92308 22.0094C4.82041 21.9197 4.74685 21.8012 4.71187 21.6692C4.67688 21.5373 4.68208 21.3978 4.72677 21.2688C4.76142 21.1417 4.83521 21.0289 4.93762 20.9464C5.04002 20.8639 5.1658 20.816 5.29699 20.8094L8.10133 20.6594L9.09843 17.9251C9.14013 17.8012 9.21953 17.6935 9.32546 17.6172C9.43138 17.541 9.5585 17.5 9.6889 17.5C9.8193 17.5 9.94641 17.541 10.0523 17.6172C10.1583 17.6935 10.2377 17.8012 10.2794 17.9251L11.2827 20.6594L14.087 20.8094C14.2173 20.8191 14.3415 20.8682 14.4433 20.9502C14.5452 21.0322 14.6198 21.1433 14.6573 21.2688C14.6975 21.3966 14.6995 21.5334 14.6629 21.6622C14.6264 21.7911 14.5529 21.9064 14.4516 21.9938L12.2705 23.8313L12.9965 26.6437C13.0304 26.7725 13.0257 26.9085 12.983 27.0346C12.9404 27.1608 12.8616 27.2715 12.7565 27.3531C12.6539 27.4303 12.5299 27.4738 12.4017 27.4777C12.2734 27.4817 12.147 27.4458 12.0399 27.375L9.68111 25.7906L7.33793 27.3906C7.236 27.4606 7.11561 27.4987 6.99206 27.5Z" fill="#050505"/>
<path fill-rule="evenodd" clip-rule="evenodd" d="M67.6141 62.5C67.4789 62.4991 67.3477 62.4541 67.2402 62.3718C67.1357 62.2899 67.0576 62.179 67.0155 62.0529C66.9733 61.9267 66.9692 61.791 67.0034 61.6625L67.7263 58.85L65.5451 57.0094C65.4425 56.9197 65.3689 56.8012 65.3339 56.6692C65.299 56.5373 65.3041 56.3978 65.3488 56.2688C65.3835 56.1417 65.4573 56.0289 65.5597 55.9464C65.6621 55.8639 65.7879 55.816 65.9191 55.8094L68.7234 55.6594L69.7205 52.9251C69.7622 52.8012 69.8416 52.6935 69.9475 52.6172C70.0535 52.541 70.1806 52.5 70.311 52.5C70.4414 52.5 70.5685 52.541 70.6744 52.6172C70.7803 52.6935 70.8597 52.8012 70.9014 52.9251L71.9048 55.6594L74.7091 55.8094C74.8394 55.8191 74.9636 55.8682 75.0654 55.9502C75.1672 56.0322 75.2418 56.1433 75.2793 56.2688C75.3196 56.3966 75.3216 56.5334 75.285 56.6622C75.2484 56.7911 75.175 56.9064 75.0737 56.9938L72.8925 58.8313L73.6185 61.6437C73.6524 61.7725 73.6478 61.9085 73.6051 62.0346C73.5624 62.1608 73.4837 62.2715 73.3786 62.3531C73.2759 62.4303 73.152 62.4738 73.0237 62.4777C72.8955 62.4817 72.7691 62.4458 72.6619 62.375L70.3032 60.7906L67.96 62.3906C67.8581 62.4606 67.7377 62.4987 67.6141 62.5Z" fill="#050505"/>
<path fill-rule="evenodd" clip-rule="evenodd" d="M54.8031 14.6889C54.6679 14.688 54.5367 14.643 54.4292 14.5608C54.3247 14.4789 54.2465 14.368 54.2044 14.2418C54.1623 14.1157 54.1581 13.9799 54.1924 13.8514L54.9153 11.039L52.7341 9.19838C52.6314 9.10866 52.5579 8.99019 52.5229 8.85821C52.4879 8.72623 52.4931 8.58677 52.5378 8.45776C52.5725 8.3307 52.6462 8.21786 52.7487 8.13536C52.8511 8.05287 52.9768 8.00493 53.108 7.9984L55.9124 7.8484L56.9095 5.11407C56.9512 4.99015 57.0306 4.88248 57.1365 4.80621C57.2424 4.72994 57.3695 4.68892 57.4999 4.68892C57.6303 4.68892 57.7574 4.72994 57.8634 4.80621C57.9693 4.88248 58.0487 4.99015 58.0904 5.11407L59.0937 7.8484L61.8981 7.9984C62.0283 8.00807 62.1526 8.05716 62.2544 8.13919C62.3562 8.22121 62.4308 8.3323 62.4683 8.45776C62.5085 8.58553 62.5105 8.72233 62.474 8.85121C62.4374 8.98009 62.3639 9.09537 62.2626 9.18275L60.0815 11.0202L60.8075 13.8327C60.8414 13.9615 60.8367 14.0974 60.7941 14.2236C60.7514 14.3498 60.6726 14.4605 60.5676 14.542C60.4649 14.6193 60.341 14.6628 60.2127 14.6667C60.0844 14.6706 59.9581 14.6347 59.8509 14.5639L57.4921 12.9796L55.149 14.5795C55.047 14.6496 54.9266 14.6877 54.8031 14.6889Z" fill="#050505"/>
<path fill-rule="evenodd" clip-rule="evenodd" d="M19.8031 75.311C19.6679 75.3101 19.5367 75.2651 19.4292 75.1829C19.3247 75.101 19.2465 74.99 19.2044 74.8639C19.1623 74.7378 19.1581 74.602 19.1924 74.4735L19.9153 71.661L17.7341 69.8204C17.6314 69.7307 17.5579 69.6123 17.5229 69.4803C17.4879 69.3483 17.4931 69.2088 17.5378 69.0798C17.5725 68.9528 17.6462 68.8399 17.7487 68.7574C17.8511 68.6749 17.9768 68.627 18.108 68.6205L20.9124 68.4705L21.9095 65.7361C21.9512 65.6122 22.0306 65.5046 22.1365 65.4283C22.2424 65.352 22.3695 65.311 22.4999 65.311C22.6303 65.311 22.7574 65.352 22.8634 65.4283C22.9693 65.5046 23.0487 65.6122 23.0904 65.7361L24.0937 68.4705L26.8981 68.6205C27.0283 68.6301 27.1526 68.6792 27.2544 68.7613C27.3562 68.8433 27.4308 68.9544 27.4683 69.0798C27.5085 69.2076 27.5105 69.3444 27.474 69.4733C27.4374 69.6022 27.3639 69.7174 27.2626 69.8048L25.0815 71.6423L25.8075 74.4548C25.8414 74.5836 25.8367 74.7195 25.7941 74.8457C25.7514 74.9718 25.6726 75.0826 25.5676 75.1641C25.4649 75.2413 25.341 75.2849 25.2127 75.2888C25.0844 75.2927 24.9581 75.2568 24.8509 75.186L22.4921 73.6016L20.149 75.2016C20.047 75.2717 19.9266 75.3097 19.8031 75.311Z" fill="#050505"/>
<path d="M27.4355 35.848C29.9965 35.848 30.9455 37.122 30.9455 38.734C30.9455 40.346 29.8665 41.672 27.6435 41.672H25.4335V45H23.7695V35.848H27.4355ZM27.5005 40.32C28.6705 40.32 29.2815 39.683 29.2815 38.786C29.2815 37.785 28.6705 37.252 27.5005 37.252H25.4335V40.32H27.5005ZM35.6962 39.501C37.8282 39.761 39.3232 40.307 39.3232 42.309C39.3232 43.856 38.0622 45.156 35.5792 45.156C33.0312 45.156 31.9132 43.674 31.8352 42.036L33.4992 41.841C33.4992 42.738 33.9152 43.804 35.5792 43.804C37.1912 43.804 37.6592 43.037 37.6592 42.4C37.6592 41.724 37.2042 41.308 35.5792 41.087C33.1352 40.762 32.1472 39.891 32.1472 38.305C32.1472 36.823 33.3952 35.692 35.6052 35.692C37.9062 35.692 38.8682 36.992 38.9852 38.396L37.3602 38.578C37.3602 37.876 36.9442 37.044 35.5792 37.044C34.1882 37.044 33.7982 37.707 33.7982 38.227C33.7982 38.682 33.9932 39.28 35.6962 39.501ZM44.0479 35.848C47.3369 35.848 48.5329 38.006 48.5329 40.424C48.5329 42.842 47.2719 45 44.0479 45H40.6289V35.848H44.0479ZM44.1129 43.596C46.0629 43.596 46.8689 42.036 46.8689 40.424C46.8689 38.812 46.0629 37.252 44.1129 37.252H42.2929V43.596H44.1129ZM49.5742 44.389C49.5742 43.505 50.0032 42.946 50.6792 42.439C51.4592 41.854 52.4732 41.334 53.0972 40.918C54.1112 40.229 54.6702 39.683 54.6702 38.656C54.6702 37.837 54.0982 37.096 52.9152 37.096C51.7062 37.096 51.1342 37.941 51.1342 38.929L49.5742 38.773C49.5742 37.239 50.7182 35.692 52.9152 35.692C55.0082 35.692 56.2302 36.94 56.2302 38.669C56.2302 40.268 55.2812 41.191 53.9162 42.049C52.8242 42.738 51.7842 43.115 51.2512 43.687L51.3032 43.791C51.7712 43.713 52.3172 43.674 52.8242 43.674H56.4382V45H49.5742V44.389Z" fill="#050505"/>
</g>
<defs>
<clipPath id="clip0_893_42974">
<rect width="80" height="80" fill="white"/>
</clipPath>
</defs>
</svg>
