<svg width="96" height="96" viewBox="0 0 96 96" fill="none" xmlns="http://www.w3.org/2000/svg">
<path d="M48 0C74.5097 0 96 21.4903 96 48C96 74.5097 74.5097 96 48 96C21.4903 96 0 74.5097 0 48C0 21.4903 21.4903 0 48 0ZM60.626 38.9883C54.8506 38.9883 52.265 42.1613 50.8213 44.3867V39.7568H39.9414C40.0848 42.8237 39.9414 72.4404 39.9414 72.4404H50.8213V54.1875C50.8213 53.2109 50.8913 52.2364 51.1787 51.5371C51.9649 49.5857 53.7555 47.5645 56.7607 47.5645C60.6984 47.5646 62.2725 50.5622 62.2725 54.9541V72.4395H73.1494L73.1504 53.7002C73.1504 43.6614 67.784 38.9884 60.626 38.9883ZM23.043 72.4395H33.9209V39.7559H23.043V72.4395ZM28.5537 24C24.8327 24.0002 22.4004 26.441 22.4004 29.6455C22.4005 32.7836 24.7612 35.2949 28.4131 35.2949H28.4824C32.2753 35.2949 34.6376 32.7836 34.6377 29.6455C34.5671 26.4409 32.275 24 28.5537 24Z" fill="#050505"/>
</svg>
