<svg width="140" height="80" viewBox="0 0 140 80" fill="none" xmlns="http://www.w3.org/2000/svg">
<g clip-path="url(#clip0_893_42989)">
<mask id="mask0_893_42989" style="mask-type:alpha" maskUnits="userSpaceOnUse" x="1" y="0" width="140" height="80">
<path d="M82.0664 0C67.273 6.95597 57 22.2495 57 40C57 57.7505 67.273 73.044 82.0664 80H1V0H82.0664ZM141 80H117.934C128.865 74.8597 137.327 65.1666 141 53.293V80ZM141 26.7061C137.327 14.8328 128.865 5.14012 117.934 0H141V26.7061Z" fill="#D9D9D9"/>
</mask>
<g mask="url(#mask0_893_42989)">
<path fill-rule="evenodd" clip-rule="evenodd" d="M36.9001 2.89633L42.49 6.72574C46.9526 9.68808 52.1789 11.2151 57.5052 11.1059L57.5575 11.1053C58.9281 11.1053 60.2717 11.2388 61.2083 11.3706L61.235 11.3743C64.2584 11.8324 66 14.4842 66 17.0864C66 17.1333 65.9986 17.1803 65.9957 17.2272L64.2877 42.98C63.8833 51.1195 59.7488 60.7663 52.8934 65.5317L52.8846 65.5379L35.43 77.5581C34.5745 78.1473 33.4255 78.1473 32.57 77.5581L15.0877 65.5187C8.38924 60.7692 4.11793 51.141 3.71234 42.9801L2.00433 17.2272C2.00144 17.1803 2 17.1333 2 17.0864C2 14.5119 3.79269 12.0542 6.55993 11.4142C7.8396 11.1035 9.43731 11.1045 10.6398 11.1052C10.697 11.1053 10.7533 11.1053 10.8087 11.1053L10.8621 11.1059C16.0355 11.2143 21.2613 9.58543 25.6221 6.61238L25.6268 6.60918L31.1053 2.89257C32.8174 1.70122 35.1894 1.70248 36.9001 2.89633Z" stroke="#050505" stroke-width="2" stroke-miterlimit="10" stroke-linecap="round" stroke-linejoin="round"/>
</g>
<ellipse cx="100" cy="39.9999" rx="38" ry="38.5" transform="rotate(-180 100 39.9999)" stroke="#050505" stroke-width="2"/>
<path d="M130 15.9999C121.209 21.7182 110.953 24.9999 100 24.9999C89.0469 24.9999 78.7907 21.7182 70 15.9999" stroke="#050505" stroke-width="2"/>
<path d="M70 63.9999C78.7907 58.2817 89.0469 54.9999 100 54.9999C110.953 54.9999 121.209 58.2817 130 63.9999" stroke="#050505" stroke-width="2"/>
<path d="M117.629 52C116.501 59.6567 114.317 66.3336 111.409 71.1846C108.398 76.2094 104.46 79.4997 99.9492 79.5C95.438 79.5 91.5001 76.2095 88.4883 71.1846C85.5808 66.3336 83.3963 59.6567 82.2686 52H84.2949C85.4075 59.3506 87.5028 65.6508 90.2031 70.1562C93.0809 74.9577 96.492 77.5 99.9492 77.5C103.406 77.4997 106.817 74.9575 109.694 70.1562C112.395 65.6508 114.49 59.3506 115.603 52H117.629Z" fill="#050505"/>
<path d="M99.9492 0.5C104.552 0.500266 108.558 3.92459 111.596 9.12988C114.534 14.1646 116.711 21.0877 117.77 29H115.749C114.703 21.3843 112.606 14.8298 109.868 10.1377C106.957 5.14956 103.477 2.50027 99.9492 2.5C96.4208 2.5 92.9404 5.14931 90.0293 10.1377C87.2912 14.8298 85.1949 21.3843 84.1484 29H82.1279C83.1865 21.0877 85.3637 14.1646 88.3018 9.12988C91.3395 3.92439 95.346 0.5 99.9492 0.5Z" fill="#050505"/>
<path d="M71.2973 44H69.6333V34.848H71.2973V44ZM76.4564 38.501C78.5884 38.761 80.0834 39.307 80.0834 41.309C80.0834 42.856 78.8224 44.156 76.3394 44.156C73.7914 44.156 72.6734 42.674 72.5954 41.036L74.2594 40.841C74.2594 41.738 74.6754 42.804 76.3394 42.804C77.9514 42.804 78.4194 42.037 78.4194 41.4C78.4194 40.724 77.9644 40.308 76.3394 40.087C73.8954 39.762 72.9074 38.891 72.9074 37.305C72.9074 35.823 74.1554 34.692 76.3654 34.692C78.6664 34.692 79.6284 35.992 79.7454 37.396L78.1204 37.578C78.1204 36.876 77.7044 36.044 76.3394 36.044C74.9484 36.044 74.5584 36.707 74.5584 37.227C74.5584 37.682 74.7534 38.28 76.4564 38.501ZM85.4971 34.692C88.3961 34.692 90.0211 36.811 90.0211 39.424C90.0211 42.037 88.3961 44.156 85.4971 44.156C82.5981 44.156 80.9731 42.037 80.9731 39.424C80.9731 36.811 82.5981 34.692 85.4971 34.692ZM85.4971 42.752C87.3041 42.752 88.3571 41.27 88.3571 39.424C88.3571 37.578 87.3041 36.096 85.4971 36.096C83.6901 36.096 82.6371 37.578 82.6371 39.424C82.6371 41.27 83.6901 42.752 85.4971 42.752ZM93.9653 43.389C93.9653 42.505 94.3943 41.946 95.0703 41.439C95.8503 40.854 96.8643 40.334 97.4883 39.918C98.5023 39.229 99.0613 38.683 99.0613 37.656C99.0613 36.837 98.4893 36.096 97.3063 36.096C96.0973 36.096 95.5253 36.941 95.5253 37.929L93.9653 37.773C93.9653 36.239 95.1093 34.692 97.3063 34.692C99.3993 34.692 100.621 35.94 100.621 37.669C100.621 39.268 99.6723 40.191 98.3073 41.049C97.2153 41.738 96.1753 42.115 95.6423 42.687L95.6943 42.791C96.1623 42.713 96.7083 42.674 97.2153 42.674H100.829V44H93.9653V43.389ZM108.526 36.148C105.965 38.566 105.497 41.231 105.38 44H103.664C103.872 41.517 104.34 38.644 106.927 36.187L106.875 36.083C106.511 36.148 106.108 36.174 105.653 36.174H101.974V34.848H108.526V36.148ZM109.565 39.32C109.565 36.603 110.852 34.692 113.153 34.692C115.467 34.692 116.741 36.603 116.741 39.32V39.528C116.741 42.232 115.467 44.156 113.153 44.156C110.852 44.156 109.565 42.232 109.565 39.528V39.32ZM113.153 42.804C114.479 42.804 115.181 41.517 115.181 39.528V39.32C115.181 37.331 114.479 36.044 113.153 36.044C111.84 36.044 111.125 37.331 111.125 39.32V39.528C111.125 41.517 111.84 42.804 113.153 42.804ZM117.779 39.32C117.779 36.603 119.066 34.692 121.367 34.692C123.681 34.692 124.955 36.603 124.955 39.32V39.528C124.955 42.232 123.681 44.156 121.367 44.156C119.066 44.156 117.779 42.232 117.779 39.528V39.32ZM121.367 42.804C122.693 42.804 123.395 41.517 123.395 39.528V39.32C123.395 37.331 122.693 36.044 121.367 36.044C120.054 36.044 119.339 37.331 119.339 39.32V39.528C119.339 41.517 120.054 42.804 121.367 42.804ZM125.993 36.668C128.021 36.668 128.112 36.291 128.333 34.848H129.633V44H128.073V37.76H125.993V36.668Z" fill="#050505"/>
<path d="M14.8374 34.848C18.1264 34.848 19.3224 37.006 19.3224 39.424C19.3224 41.842 18.0614 44 14.8374 44H11.4184V34.848H14.8374ZM14.9024 42.596C16.8524 42.596 17.6584 41.036 17.6584 39.424C17.6584 37.812 16.8524 36.252 14.9024 36.252H13.0824V42.596H14.9024ZM23.8656 38.501C25.9976 38.761 27.4926 39.307 27.4926 41.309C27.4926 42.856 26.2316 44.156 23.7486 44.156C21.2006 44.156 20.0826 42.674 20.0046 41.036L21.6686 40.841C21.6686 41.738 22.0846 42.804 23.7486 42.804C25.3606 42.804 25.8286 42.037 25.8286 41.4C25.8286 40.724 25.3736 40.308 23.7486 40.087C21.3046 39.762 20.3166 38.891 20.3166 37.305C20.3166 35.823 21.5646 34.692 23.7746 34.692C26.0756 34.692 27.0376 35.992 27.1546 37.396L25.5296 37.578C25.5296 36.876 25.1136 36.044 23.7486 36.044C22.3576 36.044 21.9676 36.707 21.9676 37.227C21.9676 37.682 22.1626 38.28 23.8656 38.501ZM28.3823 39.424C28.3823 36.811 30.0463 34.692 32.9323 34.692C35.4023 34.692 36.7283 36.122 37.0013 37.5L35.3503 37.786C35.0643 36.746 34.2323 36.096 32.9453 36.096C31.1513 36.096 30.0463 37.578 30.0463 39.424C30.0463 41.27 30.9563 42.752 32.8153 42.752C34.4013 42.752 35.2203 41.517 35.3373 40.516H32.9583V39.164H37.0143V44H35.3503V43.441C35.3503 43.116 35.4023 42.648 35.5063 42.258L35.4153 42.232C35.1163 43.038 34.2193 44.156 32.5683 44.156C29.9163 44.156 28.3823 42.063 28.3823 39.424ZM37.2212 34.848H39.0152L41.0562 41.14C41.2122 41.621 41.5502 42.609 41.5892 42.96H41.6932C41.7322 42.609 42.0702 41.621 42.2262 41.14L44.2672 34.848H46.0612L42.8372 44H40.4452L37.2212 34.848ZM50.4766 34.692C53.3756 34.692 55.0006 36.811 55.0006 39.424C55.0006 42.037 53.3756 44.156 50.4766 44.156C47.5776 44.156 45.9526 42.037 45.9526 39.424C45.9526 36.811 47.5776 34.692 50.4766 34.692ZM50.4766 42.752C52.2836 42.752 53.3366 41.27 53.3366 39.424C53.3366 37.578 52.2836 36.096 50.4766 36.096C48.6696 36.096 47.6166 37.578 47.6166 39.424C47.6166 41.27 48.6696 42.752 50.4766 42.752Z" fill="#050505"/>
</g>
<defs>
<clipPath id="clip0_893_42989">
<rect width="140" height="80" fill="white"/>
</clipPath>
</defs>
</svg>
