<svg width="321" height="96" viewBox="0 0 321 96" fill="none" xmlns="http://www.w3.org/2000/svg">
<path d="M306.237 95.2576H11.7804C5.30193 95.2576 0 89.9711 0 83.5055V12.9737C0 6.50813 5.30193 1.22168 11.7804 1.22168H306.242C312.72 1.22168 318.022 6.51304 318.022 12.9786V83.5105C318.017 89.9711 312.715 95.2576 306.237 95.2576Z" fill="#050505"/>
<path d="M306.237 3.09847C311.691 3.09847 316.132 7.53005 316.132 12.9737V83.5055C316.132 88.9492 311.691 93.3808 306.237 93.3808H11.7804C6.32589 93.3808 1.88546 88.9492 1.88546 83.5055V12.9737C1.88546 7.53005 6.32589 3.09847 11.7804 3.09847H306.237ZM306.237 1.22168H11.7804C5.30193 1.22168 0 6.50813 0 12.9737V83.5055C0 89.9711 5.30193 95.2625 11.7804 95.2625H306.242C312.72 95.2625 318.022 89.9711 318.022 83.5055V12.9737C318.017 6.50813 312.715 1.22168 306.237 1.22168Z" fill="#CCCCCC"/>
<path d="M160.504 52.3569C154.965 52.3569 150.446 56.5625 150.446 62.3599C150.446 68.1131 154.961 72.3579 160.504 72.3579C166.042 72.3579 170.561 68.1131 170.561 62.3599C170.561 56.5625 166.047 52.3569 160.504 52.3569ZM160.504 68.4177C157.466 68.4177 154.847 65.9169 154.847 62.3599C154.847 58.7586 157.466 56.2972 160.504 56.2972C163.541 56.2972 166.155 58.7586 166.155 62.3599C166.16 65.9169 163.541 68.4177 160.504 68.4177ZM138.562 52.3569C133.024 52.3569 128.505 56.5625 128.505 62.3599C128.505 68.1131 133.019 72.3579 138.562 72.3579C144.101 72.3579 148.62 68.1131 148.62 62.3599C148.625 56.5625 144.106 52.3569 138.562 52.3569ZM138.562 68.4177C135.53 68.4177 132.911 65.9169 132.911 62.3599C132.911 58.7586 135.53 56.2972 138.562 56.2972C141.6 56.2972 144.219 58.7586 144.219 62.3599C144.219 65.9169 141.6 68.4177 138.562 68.4177ZM112.466 55.4276V59.6675H122.637C122.332 62.0553 121.539 63.7945 120.323 65.008C118.841 66.4868 116.528 68.1131 112.466 68.1131C106.204 68.1131 101.306 63.0772 101.306 56.8278C101.306 50.5784 106.2 45.5425 112.466 45.5425C115.843 45.5425 118.31 46.8641 120.131 48.5689L123.129 45.5769C120.584 43.1547 117.207 41.2976 112.466 41.2976C103.891 41.2976 96.6787 48.2692 96.6787 56.8278C96.6787 65.3912 103.891 72.3579 112.466 72.3579C117.094 72.3579 120.584 70.8398 123.321 68.0001C126.127 65.1996 127.004 61.2594 127.004 58.0757C127.004 57.0882 126.93 56.1842 126.777 55.4276H112.466ZM219.199 58.7193C218.362 56.4839 215.822 52.3569 210.623 52.3569C205.464 52.3569 201.176 56.4102 201.176 62.3599C201.176 67.9657 205.425 72.3579 211.116 72.3579C215.709 72.3579 218.362 69.5575 219.465 67.9264L216.048 65.6516C214.906 67.3172 213.356 68.4177 211.116 68.4177C208.876 68.4177 207.281 67.3958 206.257 65.3912L219.652 59.8591L219.199 58.7193ZM205.538 62.0553C205.425 58.1887 208.536 56.2235 210.776 56.2235C212.524 56.2235 214.005 57.0931 214.498 58.3459L205.538 62.0553ZM194.644 71.7487H199.045V42.3588H194.644V71.7487ZM187.432 54.5923H187.279C186.29 53.4181 184.394 52.3569 182.007 52.3569C176.995 52.3569 172.407 56.7492 172.407 62.3943C172.407 68.0001 177 72.353 182.007 72.353C184.399 72.353 186.295 71.2918 187.279 70.0783H187.432V71.5178C187.432 75.3451 185.384 77.3889 182.081 77.3889C179.388 77.3889 177.714 75.4581 177.035 73.8319L173.2 75.4237C174.298 78.0767 177.222 81.3341 182.081 81.3341C187.24 81.3341 191.606 78.3027 191.606 70.9184V52.9661H187.432V54.5923ZM182.386 68.4177C179.348 68.4177 176.808 65.8825 176.808 62.3992C176.808 58.8765 179.348 56.3021 182.386 56.3021C185.384 56.3021 187.737 58.8765 187.737 62.3992C187.737 65.8776 185.384 68.4177 182.386 68.4177ZM239.821 42.3588H229.291V71.7487H233.682V60.6157H239.821C244.695 60.6157 249.48 57.0931 249.48 51.4873C249.48 45.8815 244.695 42.3588 239.821 42.3588ZM239.934 56.5232H233.682V46.4465H239.934C243.223 46.4465 245.088 49.1634 245.088 51.4824C245.088 53.7669 243.223 56.5232 239.934 56.5232ZM267.099 52.3029C263.918 52.3029 260.62 53.7031 259.256 56.7983L263.16 58.4245C263.992 56.7983 265.548 56.2677 267.177 56.2677C269.452 56.2677 271.761 57.6286 271.8 60.0458V60.3504C271.002 59.8984 269.299 59.2155 267.217 59.2155C263.013 59.2155 258.73 61.5197 258.73 65.8334C258.73 69.7688 262.181 72.299 266.04 72.299C268.999 72.299 270.623 70.9774 271.647 69.4249H271.8V71.6947H276.043V60.4241C276.039 55.2163 272.14 52.3029 267.099 52.3029ZM266.572 68.4128C265.129 68.4128 263.121 67.6955 263.121 65.9169C263.121 63.6471 265.622 62.7824 267.783 62.7824C269.713 62.7824 270.623 63.2 271.8 63.765C271.455 66.4819 269.107 68.4128 266.572 68.4128ZM291.496 52.9465L286.455 65.6909H286.303L281.075 52.9465H276.339L284.181 70.7563L279.711 80.661H284.294L296.38 52.9465H291.496ZM251.907 71.7487H256.303V42.3588H251.907V71.7487Z" fill="white"/>
<path d="M48.8052 46.8835L23.7231 73.4484C23.7231 73.4534 23.7231 73.4583 23.7281 73.4632C24.496 76.3471 27.1347 78.4696 30.2706 78.4696C31.5259 78.4696 32.6975 78.1306 33.7067 77.541L33.7855 77.4919L62.0181 61.2346L48.8052 46.8835Z" fill="#E43629"/>
<path d="M74.1779 42.3636L74.1533 42.3488L61.9643 35.2986L48.2344 47.4928L62.0135 61.2395L74.1336 54.2581C76.2603 53.1084 77.7027 50.873 77.7027 48.2985C77.7027 45.7339 76.28 43.5132 74.1779 42.3636Z" fill="#F9BD00"/>
<path d="M23.7216 23.0305C23.569 23.5857 23.4902 24.1703 23.4902 24.7697V71.714C23.4902 72.3134 23.569 72.898 23.7216 73.4532L49.6602 47.5663L23.7216 23.0305Z" fill="#587DBE"/>
<path d="M48.9873 48.2396L61.9689 35.2888L33.7707 18.9725C32.7468 18.3584 31.5505 18.0046 30.2706 18.0046C27.1396 18.0046 24.496 20.132 23.7231 23.0209V23.0258L48.9873 48.2396Z" fill="#30A043"/>
<path d="M98.3979 26.0994C98.3979 30.1209 101.414 32.8214 105.158 32.8214C107.307 32.8214 109.1 31.9277 110.322 30.5872V25.9051H104.173V27.3427H108.686V29.9849C108.036 30.6261 106.735 31.3838 105.158 31.3838C102.281 31.3838 100.093 29.169 100.093 26.0994C100.093 23.0103 102.281 20.8344 105.158 20.8344C106.735 20.8344 108.135 21.5727 108.962 22.6218L110.263 21.8252C109.1 20.407 107.484 19.3967 105.158 19.3967C101.414 19.3967 98.3979 22.0778 98.3979 26.0994Z" fill="white"/>
<path d="M112.981 32.5689H121.594V31.1312H114.617V26.6628H121.456V25.2251H114.617V21.0481H121.594V19.6104H112.981V32.5689Z" fill="white"/>
<path d="M127.455 32.5689H129.091V21.0481H133.269V19.6104H123.296V21.0481H127.455V32.5689Z" fill="white"/>
<path d="M140.525 32.5689H142.161V19.6104H140.525V32.5689Z" fill="white"/>
<path d="M148.493 32.5689H150.128V21.0481H154.307V19.6104H144.334V21.0481H148.493V32.5689Z" fill="white"/>
<path d="M161.03 26.0994C161.03 29.9267 163.652 32.802 167.554 32.802C171.437 32.802 174.078 29.9267 174.078 26.0994C174.078 22.2721 171.437 19.3967 167.554 19.3967C163.652 19.3967 161.03 22.2721 161.03 26.0994ZM172.383 26.0994C172.383 29.1107 170.491 31.3643 167.554 31.3643C164.598 31.3643 162.725 29.1107 162.725 26.0994C162.725 23.0686 164.598 20.8344 167.554 20.8344C170.491 20.8344 172.383 23.0686 172.383 26.0994Z" fill="white"/>
<path d="M185.937 32.5689H187.513V19.6104H185.878V29.8489L178.309 19.6104H176.634V32.5689H178.27V22.1166L185.937 32.5689Z" fill="white"/>
<path fill-rule="evenodd" clip-rule="evenodd" d="M98.1626 26.0993C98.1626 21.9439 101.289 19.1648 105.158 19.1648C107.566 19.1648 109.246 20.2159 110.446 21.6794L110.613 21.8835L108.907 22.9287L108.777 22.764C107.993 21.7706 106.662 21.0661 105.158 21.0661C102.419 21.0661 100.328 23.1294 100.328 26.0993C100.328 29.0514 102.421 31.1518 105.158 31.1518C106.608 31.1518 107.816 30.4779 108.451 29.8868V27.5745H103.938V25.6731H110.557V30.676L110.497 30.7421C109.233 32.1294 107.376 33.0532 105.158 33.0532C101.288 33.0532 98.1626 30.2538 98.1626 26.0993ZM105.158 19.6285C101.537 19.6285 98.633 22.2115 98.633 26.0993C98.633 29.9879 101.538 32.5895 105.158 32.5895C107.202 32.5895 108.909 31.7549 110.087 30.4974V26.1368H104.408V27.1108H108.922V30.0809L108.853 30.1488C108.166 30.8253 106.808 31.6155 105.158 31.6155C102.14 31.6155 99.8576 29.2864 99.8576 26.0993C99.8576 22.891 102.142 20.6025 105.158 20.6025C106.727 20.6025 108.13 21.2997 109.014 22.3173L109.909 21.769C108.798 20.5039 107.29 19.6285 105.158 19.6285ZM160.795 26.0993C160.795 22.1574 163.509 19.1648 167.554 19.1648C171.58 19.1648 174.313 22.1569 174.313 26.0993C174.313 30.0416 171.58 33.0337 167.554 33.0337C163.509 33.0337 160.795 30.0412 160.795 26.0993ZM167.554 19.6285C163.795 19.6285 161.265 22.3866 161.265 26.0993C161.265 29.812 163.795 32.5701 167.554 32.5701C171.294 32.5701 173.843 29.8115 173.843 26.0993C173.843 22.387 171.294 19.6285 167.554 19.6285ZM112.746 19.3785H121.829V21.2798H114.852V24.9932H121.691V26.8945H114.852V30.8993H121.829V32.8006H112.746V19.3785ZM113.216 19.8422V32.3369H121.359V31.3629H114.382V26.4308H121.221V25.4568H114.382V20.8162H121.359V19.8422H113.216ZM123.061 19.3785H133.504V21.2798H129.326V32.8006H127.219V21.2798H123.061V19.3785ZM123.531 19.8422V20.8162H127.69V32.3369H128.855V20.8162H133.034V19.8422H123.531ZM140.289 19.3785H142.396V32.8006H140.289V19.3785ZM140.76 19.8422V32.3369H141.925V19.8422H140.76ZM144.098 19.3785H154.542V21.2798H150.363V32.8006H148.257V21.2798H144.098V19.3785ZM144.569 19.8422V20.8162H148.728V32.3369H149.893V20.8162H154.072V19.8422H144.569ZM176.398 19.3785H178.428L185.642 29.137V19.3785H187.748V32.8006H185.816L178.505 22.8329V32.8006H176.398V19.3785ZM176.869 19.8422V32.3369H178.034V21.4002L186.057 32.3369H187.278V19.8422H186.113V30.5607L178.189 19.8422H176.869ZM164.208 22.4835C163.414 23.3714 162.961 24.63 162.961 26.0993C162.961 27.5585 163.414 28.8173 164.208 29.708C164.999 30.5957 166.141 31.1324 167.554 31.1324C168.957 31.1324 170.099 30.596 170.893 29.7077C171.69 28.8168 172.148 27.5579 172.148 26.0993C172.148 24.6307 171.69 23.372 170.894 22.4837C170.1 21.5982 168.958 21.0661 167.554 21.0661C166.14 21.0661 164.998 21.5984 164.208 22.4835ZM163.855 22.177C164.739 21.1873 166.012 20.6025 167.554 20.6025C169.087 20.6025 170.36 21.1875 171.246 22.1768C172.13 23.1633 172.618 24.5371 172.618 26.0993C172.618 27.652 172.13 29.0256 171.246 30.0143C170.36 31.0057 169.088 31.5961 167.554 31.5961C166.011 31.5961 164.738 31.0059 163.854 30.014C162.973 29.025 162.49 27.6514 162.49 26.0993C162.49 24.5377 162.973 23.1639 163.855 22.177Z" fill="#050505"/>
</svg>
