<svg width="32" height="32" viewBox="0 0 32 32" fill="none" xmlns="http://www.w3.org/2000/svg">
<path fill-rule="evenodd" clip-rule="evenodd" d="M31.3428 24.1848C30.3028 23.7348 29.2328 23.3948 28.1528 23.0648C29.3228 21.0248 29.9928 18.6548 29.9928 16.1348C29.9928 8.39477 23.7328 2.13477 16.0028 2.13477C8.2728 2.13477 2.0128 8.39477 2.0128 16.1248C2.0128 18.6448 2.6828 21.0148 3.8528 23.0548C2.7828 23.3848 1.7028 23.7248 0.662795 24.1748C0.282795 24.3148 0.00279514 24.7248 0.0127951 25.1348C-0.00720486 25.9448 0.0127951 28.3448 0.0127951 28.3448C0.0127951 29.4148 1.1028 30.1548 2.0928 29.7548C11.0228 26.1848 20.9728 26.1848 29.9028 29.7548C30.9028 30.1548 31.9828 29.4148 31.9828 28.3448C31.9828 28.3448 32.0128 25.9448 31.9828 25.1348C31.9928 24.7248 31.7128 24.3248 31.3328 24.1748L31.3428 24.1848ZM27.9928 16.1248C27.9928 9.50477 22.6228 4.13477 16.0028 4.13477C9.3828 4.13477 4.0128 9.50477 4.0128 16.1248C4.0128 20.0548 5.9128 23.5548 8.8328 25.7348C13.5728 24.8548 18.4328 24.8548 23.1728 25.7348C26.1028 23.5448 27.9928 20.0548 27.9928 16.1248ZM25.6328 26.2748C27.1028 26.6448 28.5628 27.1048 29.9928 27.6448V25.7948C29.0028 25.4148 27.9928 25.0848 26.9828 24.7848C26.5628 25.3148 26.1128 25.8048 25.6328 26.2648V26.2748ZM2.0128 25.7948V27.6448C3.4428 27.1048 4.9028 26.6448 6.3728 26.2748C5.8828 25.8148 5.4328 25.3148 5.0228 24.7948C4.0128 25.0848 3.0028 25.4248 2.0128 25.8048V25.7948Z" fill="#050505"/>
<path d="M12.2528 12.3148C11.9828 12.8348 11.7828 13.4748 11.6228 14.2248H10.4628V15.4248H11.4728V16.4148H10.4628V17.5948H11.5728C11.6928 18.3848 11.8628 19.0448 12.0928 19.5748C12.3628 20.1848 12.6928 20.6948 13.0828 21.1048C13.9228 21.9748 15.0828 22.4148 16.3328 22.4048C17.1428 22.4048 17.8728 22.2348 18.5028 21.9048C19.1428 21.5648 19.6528 21.0948 20.0528 20.4848L19.1128 19.6148C18.8928 19.4048 18.6628 19.4448 18.4528 19.6448L18.0528 20.0248C17.9028 20.1648 17.7028 20.2848 17.4428 20.3848C17.1728 20.5048 16.8428 20.5548 16.4328 20.5548C15.7328 20.5548 15.1628 20.3148 14.7128 19.8248C14.2628 19.3348 13.9528 18.5948 13.7928 17.5848H16.7828C17.0928 17.5848 17.3728 17.3448 17.3728 17.0648V16.4048H13.6928L13.6728 16.1948V15.7048L13.6928 15.4148H17.6028C17.9128 15.4148 18.1928 15.1848 18.1928 14.8748V14.2148H13.8328C14.0328 13.2848 14.3628 12.5948 14.8228 12.1348C15.2828 11.6748 15.8628 11.4448 16.5428 11.4448C17.2828 11.4248 17.8228 11.6848 18.3128 12.1348C18.5928 12.4148 18.8928 12.4348 19.2028 12.1348L19.9528 11.3148C19.5728 10.7948 19.0928 10.3748 18.5328 10.0648C17.9728 9.75477 17.2728 9.59477 16.4628 9.59477C15.8628 9.59477 15.2828 9.70477 14.7428 9.92477C13.6228 10.3648 12.8328 11.2048 12.2528 12.3048V12.3148Z" fill="#050505"/>
</svg>
