<svg width="96" height="96" viewBox="0 0 96 96" fill="none" xmlns="http://www.w3.org/2000/svg">
<path d="M48 0C74.5097 0 96 21.4903 96 48C96 74.5097 74.5097 96 48 96C21.4903 96 0 74.5097 0 48C0 21.4903 21.4903 0 48 0ZM37.1055 26.623C32.1669 26.6357 27.2276 26.6318 22.2891 26.6318H21.7803C21.8674 27.035 21.8341 27.4751 22.0361 27.7246C23.6869 29.763 25.3815 31.766 27.0645 33.7783C27.4051 34.1856 27.5735 34.6484 27.5732 35.1797C27.5692 43.0215 27.5669 50.8642 27.5654 58.7061C27.5654 58.9011 27.5667 59.0975 27.5879 59.291C27.675 60.0864 27.4547 60.7868 26.9482 61.4004C25.1535 63.5747 23.3726 65.7607 21.5498 67.9111C21.1801 68.3473 21.1535 68.7717 21.2041 69.2666H37.2139C37.3477 68.6961 37.1805 68.2777 36.8203 67.8506C35.0113 65.7055 33.2359 63.5315 31.4473 61.3691C30.9779 60.8016 30.7599 60.1496 30.7754 59.417C30.7825 59.0782 30.7997 58.7392 30.7998 58.4004C30.8013 52.033 30.8008 45.6653 30.8008 39.2979V38.8291C30.9595 38.9521 31.0225 39.0777 31.0811 39.2051C35.5122 48.8569 39.9425 58.5095 44.374 68.1611C44.5423 68.528 44.6278 69.0345 44.916 69.2168C45.2179 69.4076 45.7199 69.2658 46.1309 69.3066C46.4516 69.3386 46.5772 69.2077 46.6904 68.9199C50.5963 58.9904 54.5117 49.0645 58.4268 39.1387C58.4715 39.0251 58.5237 38.9138 58.5723 38.8018C58.6373 38.8729 58.6445 38.9328 58.6445 38.9922C58.6445 47.0428 58.6419 55.0939 58.6484 63.1445C58.6488 63.6371 58.4829 64.0131 58.127 64.3525C56.8328 65.587 55.5759 66.861 54.2607 68.0723C53.8316 68.4675 53.8301 68.8752 53.8877 69.374H74.9658C75.0792 68.8214 74.9798 68.415 74.5576 68.0215C73.2592 66.8113 72.0109 65.5476 70.7383 64.3096C70.4489 64.0279 70.3049 63.6977 70.3184 63.2959C70.3261 63.0613 70.3339 62.8264 70.334 62.5918C70.3348 57.0333 70.3358 51.4745 70.333 45.916C70.3309 41.5062 70.3235 37.0963 70.3174 32.6865C70.3168 32.2989 70.464 31.9834 70.7451 31.7158C72.0693 30.4559 73.3706 29.1709 74.7207 27.9395C75.1515 27.5467 75.1628 27.1419 75.0771 26.6484C74.9681 26.6422 74.878 26.6328 74.7881 26.6328C70.0324 26.632 65.2762 26.6351 60.5205 26.624C60.2331 26.6234 60.1503 26.7546 60.0605 26.9785C56.6384 35.5163 53.2105 44.0521 49.7832 52.5879C49.7277 52.7261 49.6607 52.8599 49.5723 53.0547C49.4755 52.8552 49.4068 52.7192 49.3438 52.5811C45.452 44.0583 41.5588 35.5361 37.6748 27.0098C37.5515 26.739 37.4253 26.6223 37.1055 26.623Z" fill="#050505"/>
</svg>
