<svg width="32" height="32" viewBox="0 0 32 32" fill="none" xmlns="http://www.w3.org/2000/svg">
<g clip-path="url(#clip0_17080_185)">
<path fill-rule="evenodd" clip-rule="evenodd" d="M31.6996 0.326328C31.3996 0.0061902 30.9596 -0.0738444 30.5396 0.0662161L0.699634 11.091C0.199634 11.2711 -0.000366211 11.7313 -0.000366211 12.0914C-0.000366211 12.4516 0.179634 12.9118 0.699634 13.1319L13.3396 17.994V18.054L17.3396 31.2397C17.4996 31.7799 17.9396 32 18.2996 32H18.3596C18.7196 32 19.1396 31.8399 19.3596 31.3597L31.9196 1.50684C32.0796 1.10667 31.9996 0.666475 31.6996 0.326328ZM29.0596 3.06751L18.5396 28.1183L18.3996 27.7182L15.3396 17.4937L17.9996 14.9526C18.3996 14.5725 18.4196 13.9322 18.0396 13.512C17.8396 13.3119 17.5996 13.1919 17.3196 13.1919H17.2996C17.0396 13.1919 16.7996 13.2919 16.5996 13.472L13.9596 16.0131H13.8596L3.81963 12.1114L29.1996 2.74737L29.0596 3.06751Z" fill="#050505"/>
</g>
<defs>
<clipPath id="clip0_17080_185">
<rect width="32" height="32" fill="white"/>
</clipPath>
</defs>
</svg>
