<svg width="74" height="40" viewBox="0 0 74 40" fill="none" xmlns="http://www.w3.org/2000/svg">
<path d="M51.6504 31.0048V25.0035H54.3767C55.0283 25.0035 55.6027 25.1293 56.0999 25.3808C56.5972 25.6265 56.9858 25.9723 57.2659 26.4181C57.546 26.8639 57.686 27.3926 57.686 28.0042C57.686 28.61 57.546 29.1387 57.2659 29.5902C56.9858 30.0361 56.5972 30.3847 56.0999 30.6362C55.6027 30.882 55.0283 31.0048 54.3767 31.0048H51.6504ZM53.0393 29.8646H54.3081C54.7082 29.8646 55.054 29.7903 55.3455 29.6417C55.6427 29.4874 55.8713 29.2702 56.0313 28.9901C56.1971 28.7101 56.28 28.3814 56.28 28.0042C56.28 27.6212 56.1971 27.2926 56.0313 27.0183C55.8713 26.7382 55.6427 26.5239 55.3455 26.3753C55.054 26.2209 54.7082 26.1438 54.3081 26.1438H53.0393V29.8646Z" fill="black"/>
<path d="M44.7266 31.0048V25.0035H45.8754L49.4161 29.3245H48.8589V25.0035H50.2306V31.0048H49.0904L45.541 26.6839H46.0983V31.0048H44.7266Z" fill="black"/>
<path d="M41.9141 31.0048V25.0035H43.3029V31.0048H41.9141Z" fill="black"/>
<path d="M33.7266 31.0048V25.0035H34.8754L37.4302 29.2387H36.8215L39.3335 25.0035H40.4737L40.4909 31.0048H39.1877L39.1792 27.0011H39.4192L37.4131 30.3704H36.7872L34.7382 27.0011H35.0297V31.0048H33.7266Z" fill="black"/>
<path d="M53.252 23.0031V17.0018H55.8497C56.3869 17.0018 56.8499 17.0904 57.2385 17.2676C57.6272 17.4391 57.9273 17.6877 58.1387 18.0135C58.3502 18.3393 58.4559 18.7279 58.4559 19.1794C58.4559 19.6253 58.3502 20.0111 58.1387 20.3368C57.9273 20.6569 57.6272 20.9027 57.2385 21.0741C56.8499 21.2456 56.3869 21.3313 55.8497 21.3313H54.0236L54.6408 20.7226V23.0031H53.252ZM57.0671 23.0031L55.5667 20.8255H57.0499L58.5674 23.0031H57.0671ZM54.6408 20.877L54.0236 20.2254H55.7725C56.2012 20.2254 56.5212 20.1339 56.7327 19.951C56.9442 19.7624 57.0499 19.5052 57.0499 19.1794C57.0499 18.8479 56.9442 18.5907 56.7327 18.4078C56.5212 18.225 56.2012 18.1335 55.7725 18.1335H54.0236L54.6408 17.4734V20.877Z" fill="black"/>
<path d="M49.1591 23.106C48.3075 23.106 47.6417 22.8688 47.1616 22.3944C46.6815 21.92 46.4414 21.2427 46.4414 20.3626V17.0018H47.8303V20.3111C47.8303 20.8827 47.9474 21.2942 48.1818 21.5457C48.4161 21.7972 48.7448 21.9229 49.1677 21.9229C49.5907 21.9229 49.9193 21.7972 50.1536 21.5457C50.388 21.2942 50.5051 20.8827 50.5051 20.3111V17.0018H51.8769V20.3626C51.8769 21.2427 51.6368 21.92 51.1567 22.3944C50.6766 22.8688 50.0108 23.106 49.1591 23.106Z" fill="black"/>
<path d="M42.1769 23.106C41.7025 23.106 41.2624 23.0288 40.8566 22.8745C40.4565 22.7202 40.1079 22.503 39.8107 22.2229C39.5192 21.9429 39.2906 21.6142 39.1248 21.237C38.9648 20.8598 38.8848 20.4483 38.8848 20.0025C38.8848 19.5566 38.9648 19.1451 39.1248 18.7679C39.2906 18.3907 39.522 18.062 39.8193 17.782C40.1165 17.5019 40.4651 17.2847 40.8652 17.1304C41.2653 16.9761 41.6997 16.8989 42.1683 16.8989C42.6427 16.8989 43.0771 16.9761 43.4715 17.1304C43.8716 17.2847 44.2173 17.5019 44.5088 17.782C44.806 18.062 45.0375 18.3907 45.2033 18.7679C45.369 19.1394 45.4519 19.5509 45.4519 20.0025C45.4519 20.4483 45.369 20.8626 45.2033 21.2456C45.0375 21.6228 44.806 21.9514 44.5088 22.2315C44.2173 22.5059 43.8716 22.7202 43.4715 22.8745C43.0771 23.0288 42.6456 23.106 42.1769 23.106ZM42.1683 21.9229C42.437 21.9229 42.6827 21.8771 42.9056 21.7857C43.1343 21.6943 43.3343 21.5628 43.5058 21.3913C43.6772 21.2199 43.8087 21.017 43.9001 20.7826C43.9973 20.5483 44.0459 20.2882 44.0459 20.0025C44.0459 19.7167 43.9973 19.4566 43.9001 19.2223C43.8087 18.9879 43.6772 18.785 43.5058 18.6136C43.34 18.4421 43.1428 18.3107 42.9142 18.2192C42.6856 18.1278 42.437 18.082 42.1683 18.082C41.8997 18.082 41.6511 18.1278 41.4225 18.2192C41.1996 18.3107 41.0024 18.4421 40.8309 18.6136C40.6594 18.785 40.5251 18.9879 40.428 19.2223C40.3365 19.4566 40.2908 19.7167 40.2908 20.0025C40.2908 20.2825 40.3365 20.5426 40.428 20.7826C40.5251 21.017 40.6566 21.2199 40.8223 21.3913C40.9938 21.5628 41.1938 21.6943 41.4225 21.7857C41.6511 21.8771 41.8997 21.9229 42.1683 21.9229Z" fill="black"/>
<path d="M35.2179 23.0031V20.5512L35.5351 21.3914L32.8945 17.0018H34.3691L36.3924 20.3711H35.5437L37.5755 17.0018H38.9387L36.2981 21.3914L36.6068 20.5512V23.0031H35.2179Z" fill="black"/>
<path d="M66.9648 15.0013V9H69.6911C70.3427 9 70.9171 9.12574 71.4144 9.37722C71.9116 9.62299 72.3003 9.96878 72.5803 10.4146C72.8604 10.8604 73.0004 11.3891 73.0004 12.0006C73.0004 12.6065 72.8604 13.1352 72.5803 13.5867C72.3003 14.0325 71.9116 14.3812 71.4144 14.6326C70.9171 14.8784 70.3427 15.0013 69.6911 15.0013H66.9648ZM68.3537 13.8611H69.6226C70.0226 13.8611 70.3684 13.7868 70.6599 13.6381C70.9571 13.4838 71.1858 13.2666 71.3458 12.9866C71.5115 12.7065 71.5944 12.3779 71.5944 12.0006C71.5944 11.6177 71.5115 11.2891 71.3458 11.0147C71.1858 10.7347 70.9571 10.5203 70.6599 10.3717C70.3684 10.2174 70.0226 10.1402 69.6226 10.1402H68.3537V13.8611Z" fill="black"/>
<path d="M60.041 15.0013V9H61.1898L64.7306 13.3209H64.1733V9H65.5451V15.0013H64.4048L60.8555 10.6804H61.4127V15.0013H60.041Z" fill="black"/>
<path d="M57.2285 15.0013V9H58.6174V15.0013H57.2285Z" fill="black"/>
<path d="M48.8227 15.0013L46.8594 9H48.2997L50.0058 14.3154H49.2856L51.0689 9H52.3549L54.0695 14.3154H53.3751L55.124 9H56.4529L54.4896 15.0013H52.9978L51.4804 10.3374H51.8747L50.3144 15.0013H48.8227Z" fill="black"/>
<path d="M40.4824 15.0013V9H41.6312L45.172 13.3209H44.6147V9H45.9865V15.0013H44.8462L41.2969 10.6804H41.8541V15.0013H40.4824Z" fill="black"/>
<path d="M36.3935 15.1042C35.5419 15.1042 34.876 14.867 34.3959 14.3926C33.9158 13.9182 33.6758 13.2409 33.6758 12.3607V9H35.0647V12.3093C35.0647 12.8808 35.1818 13.2924 35.4162 13.5438C35.6505 13.7953 35.9791 13.9211 36.4021 13.9211C36.825 13.9211 37.1537 13.7953 37.388 13.5438C37.6224 13.2924 37.7395 12.8808 37.7395 12.3093V9H39.1112V12.3607C39.1112 13.2409 38.8712 13.9182 38.3911 14.3926C37.911 14.867 37.2451 15.1042 36.3935 15.1042Z" fill="black"/>
<path d="M1 5.07403H5.33333M1 5.07403L3.40741 2.66663H7.74074M1 5.07403C1 11.3333 1 25.0074 1 29.6296C1 35.4074 6.77778 37.3333 14.4815 37.3333C22.1852 37.3333 27.5 34.4444 27.5 29.6296C27.5 25.7777 27.5 11.6543 27.5 5.07403L24.5926 2.66663M5.33333 5.07403L7.74074 2.66663M5.33333 5.07403L12.0741 14.7037L14 11.6944M5.33333 5.07403C5.33333 6.82699 5.33333 9.16336 5.33333 11.6944M7.74074 2.66663L14 11.6944M24.5926 2.66663H19.7778L14 11.6944M24.5926 2.66663L14 18.5555V33.4814C11.1111 33.3209 5.33333 32.037 5.33333 28.1851C5.33333 25.4404 5.33333 17.9692 5.33333 11.6944M5.33333 11.6944L7.98471 15.4726M7.98471 15.4726L10.1481 18.5555V29.1481C9.34568 29.1481 7.74074 28.6666 7.74074 26.7407C7.74074 24.8148 7.90339 18.4262 7.98471 15.4726ZM19.7778 15.6666L17.3704 19.037V29.1481M19.7778 15.6666L24.5926 8.92589C24.5926 14.3827 24.4636 25.4888 24.4636 28.1851C24.4636 31.5555 20.2593 33.4814 17.3704 33.4814V29.1481M19.7778 15.6666C19.7778 18.8765 19.7778 25.2 19.7778 26.7407C19.7778 28.2814 18.1728 29.1481 17.3704 29.1481" stroke="black" stroke-width="0.8" stroke-linejoin="round"/>
</svg>
