<svg width="153" height="41" viewBox="0 0 153 41" fill="none" xmlns="http://www.w3.org/2000/svg">
<path d="M12.5771 25.9367C13.1692 25.9367 13.702 26.4405 13.7021 27.0324C13.7021 27.6246 13.1693 28.1281 12.5771 28.1281C11.985 28.1281 11.4814 27.6246 11.4814 27.0324C11.4816 26.4405 11.9851 25.9367 12.5771 25.9367Z" fill="#1D1D1B"/>
<path d="M26.7002 25.9367C27.2921 25.9368 27.825 26.4406 27.8252 27.0324C27.8252 27.6245 27.2922 28.128 26.7002 28.1281C26.108 28.1281 25.6045 27.6246 25.6045 27.0324C25.6047 26.4405 26.1081 25.9367 26.7002 25.9367Z" fill="#1D1D1B"/>
<path d="M24.7158 13.7092C27.4988 13.7092 29.3943 15.6037 30.4307 18.4162C30.4899 18.5643 30.4602 18.8009 30.1641 18.801H23.5615C23.3839 18.801 23.2656 18.6235 23.2656 18.5051V14.0051C23.2657 13.8276 23.3248 13.7092 23.5615 13.7092H24.7158Z" fill="#1D1D1B"/>
<path d="M14.9453 13.7092C15.1228 13.7092 15.2418 13.8271 15.2422 13.9748V18.5051C15.2422 18.5939 15.1823 18.7717 14.9453 18.7717H9.94238C9.73528 18.7717 9.67587 18.5943 9.67578 18.4758V14.0051C9.67578 13.9453 9.67638 13.7092 9.94238 13.7092H14.9453Z" fill="#1D1D1B"/>
<path d="M21.6963 13.7092C21.8738 13.7092 21.992 13.8276 21.9922 14.0051V18.4758C21.992 18.6238 21.8738 18.7717 21.6963 18.7717H16.7812C16.6332 18.7716 16.4855 18.7124 16.4854 18.4758V14.0051H16.5146C16.5147 13.9754 16.5154 13.9154 16.5449 13.8859C16.5454 13.8567 16.5743 13.8273 16.6035 13.798C16.633 13.7686 16.6628 13.7386 16.6924 13.7385C16.7219 13.7385 16.7517 13.7093 16.8105 13.7092H21.6963Z" fill="#1D1D1B"/>
<path fill-rule="evenodd" clip-rule="evenodd" d="M37.1514 0.740414C38.5132 0.740622 39.6377 1.9545 39.6377 3.43475V36.6838C39.6377 38.1641 38.5428 39.3779 37.1514 39.3781H3.4873C2.12535 39.3781 1 38.1642 1 36.6838V3.43475C1 1.95437 2.12535 0.740414 3.4873 0.740414H37.1514ZM12.9912 24.8117C12.5473 24.7231 12.1028 24.7819 11.6885 24.9299C11.2743 25.1074 10.9194 25.3744 10.6826 25.759C10.4458 26.1141 10.2979 26.5592 10.2979 27.0031C10.2979 27.299 10.3563 27.5953 10.4746 27.8615C10.593 28.1279 10.7412 28.3946 10.9482 28.6017C11.1554 28.809 11.3926 28.9865 11.6885 29.0754C11.9549 29.1938 12.2518 29.2531 12.5479 29.2531C12.9918 29.2531 13.4358 29.1346 13.791 28.8683C14.1462 28.6314 14.4424 28.276 14.6201 27.8615C14.7976 27.4471 14.8271 27.0027 14.7383 26.5588C14.679 26.1444 14.4721 25.7594 14.1465 25.4338C13.8209 25.1082 13.4352 24.9005 12.9912 24.8117ZM27.1143 24.8117C26.6702 24.723 26.226 24.7819 25.8115 24.9299C25.3972 25.1074 25.0415 25.3742 24.8047 25.759C24.5679 26.1141 24.42 26.5592 24.4199 27.0031C24.42 27.2991 24.4794 27.5952 24.5977 27.8615C24.716 28.128 24.8641 28.3946 25.0713 28.6017C25.2785 28.809 25.5156 28.9865 25.8115 29.0754C26.078 29.1937 26.374 29.2531 26.6699 29.2531C27.1141 29.2531 27.5588 29.1348 27.9141 28.8683C28.2693 28.6314 28.5656 28.276 28.7432 27.8615C28.9207 27.4472 28.9501 27.0027 28.8613 26.5588C28.8021 26.1444 28.5949 25.7594 28.2695 25.4338C27.9438 25.1082 27.5584 24.9005 27.1143 24.8117ZM8.58008 21.9094C8.52092 21.9094 8.4615 21.9394 8.40234 21.9689C8.34317 21.9985 8.31304 22.0282 8.25391 22.0578C8.22441 22.0874 8.19453 22.1471 8.16504 22.2062C8.13564 22.265 8.10671 22.3242 8.10645 22.383V25.3742C8.1062 25.6993 7.83995 25.5822 7.83984 26.1144V26.4103C7.83993 26.7654 8.04742 26.9728 8.37305 26.9728H8.96484C9.05363 26.9728 9.26051 26.9134 9.26074 26.6769C9.26092 24.8416 10.7707 23.3315 12.5469 23.3312C14.3232 23.3312 15.8924 24.7526 15.8926 26.6769C15.8928 26.8542 16.0114 26.9425 16.1592 26.9426H23.0576C23.2352 26.9426 23.3545 26.8243 23.3545 26.6467C23.3548 24.9001 24.7462 23.301 26.7002 23.301C28.5355 23.3011 30.0153 24.8114 30.0156 26.6467C30.0156 26.765 30.0751 26.9423 30.3115 26.9426H32.2666C32.5624 26.9422 32.8281 26.6463 32.8281 26.3801V24.7228C32.7689 24.3381 32.5915 24.1301 32.2363 24.1301H31.585C30.9929 24.13 30.6972 23.8637 30.4307 23.5676C29.9571 23.0349 29.3943 22.6204 28.7432 22.3244C28.0919 22.0283 27.4105 21.9094 26.7002 21.9094H8.58008ZM26.3447 11.7844C22.4661 10.2449 13.2287 10.8367 9.49805 11.8137C8.90596 11.9617 8.10661 12.2582 8.10645 13.383V19.3049L8.13574 19.8674C8.10631 20.0151 8.16549 20.1341 8.22461 20.2228C8.25425 20.2818 8.31395 20.3115 8.37305 20.341C8.43218 20.3705 8.49166 20.3703 8.55078 20.3703H26.6699C28.2391 20.3407 29.7793 20.9628 30.9043 22.0285C31.082 22.2061 31.3187 22.5909 31.6738 22.591H32.0293C32.2069 22.591 32.2666 22.5023 32.2666 22.2951V19.7189C32.2664 16.1071 30.075 13.2055 26.3447 11.7844Z" fill="#1D1D1B"/>
<path d="M49.7639 11.2209C49.7343 11.2209 49.7047 11.2209 49.6751 11.2505C49.6455 11.2505 49.6159 11.2802 49.6159 11.3098C49.5863 11.3394 49.5863 11.369 49.5567 11.369C49.5567 11.3986 49.5271 11.4282 49.5271 11.4578V24.6628C49.5271 26.2617 49.9713 27.4163 50.8891 28.1269C51.8661 28.9263 53.4353 29.1039 55.2414 28.6895C55.3006 28.6895 55.3302 28.6599 55.3598 28.6007C55.3894 28.5711 55.419 28.5119 55.419 28.4527L55.3894 26.2025C55.3894 26.1729 55.3894 26.1433 55.3598 26.1137C55.3598 26.084 55.3302 26.0544 55.3006 26.0248C55.271 25.9951 55.2414 25.9951 55.2118 25.9951C55.1822 25.9951 55.1526 25.9951 55.123 25.9951C54.4124 26.1433 53.8795 26.0544 53.4945 25.7583C53.0801 25.4327 52.9024 24.8405 52.9024 23.9819V11.4578C52.9024 11.3986 52.8727 11.3394 52.8431 11.3098C52.8135 11.2802 52.7543 11.2505 52.6951 11.2505H49.7639V11.2209Z" fill="#1D1D1B"/>
<path d="M62.5251 15.0109C60.5709 15.0109 58.9721 15.6919 57.7583 17.0241C56.5443 18.3565 55.9225 20.0145 55.9225 21.9686C55.9225 23.982 56.5443 25.64 57.7583 26.9724C58.9721 28.2751 60.6005 28.956 62.5843 28.956C64.0942 28.956 65.4266 28.5416 66.5517 27.7126C67.6472 26.9132 68.4762 25.7584 68.861 24.4262C68.861 24.3966 68.861 24.3668 68.861 24.3372C68.861 24.3076 68.8314 24.278 68.8314 24.2484C68.8018 24.2188 68.8018 24.1892 68.7722 24.1892C68.7426 24.1892 68.713 24.1596 68.6834 24.1596H65.693C65.6634 24.1596 65.6042 24.1596 65.5746 24.1892C65.545 24.2188 65.5154 24.2484 65.5154 24.278C65.3082 24.811 64.9233 25.2552 64.4199 25.5216C63.887 25.8472 63.2949 25.9954 62.6731 25.9954C61.6961 25.9954 60.9263 25.7288 60.3341 25.1366C59.7715 24.5742 59.4163 23.8636 59.3275 23.0938V23.0346H68.95C69.0092 23.0346 69.0388 23.005 69.098 22.9754C69.1276 22.9458 69.1572 22.8865 69.1572 22.8273L69.1868 21.9094C69.1868 19.9553 68.565 18.2973 67.3807 16.9945C66.0484 15.6623 64.4791 15.0109 62.5251 15.0109ZM65.693 20.4291H59.2977L59.3275 20.3698C59.4755 19.6889 59.8307 19.0671 60.3637 18.5934C60.9559 18.0605 61.6664 17.8235 62.5547 17.8235C63.4429 17.8235 64.1831 18.0901 64.7456 18.5934C65.249 19.0671 65.6042 19.6889 65.7227 20.3698L65.693 20.4291Z" fill="#1D1D1B"/>
<path d="M131.629 25.6995C129.587 25.6995 127.958 24.0414 127.958 22.028C127.958 20.0148 129.615 18.3568 131.629 18.3568C133.643 18.3568 135.3 20.0148 135.3 22.028C135.3 24.0414 133.643 25.6995 131.629 25.6995ZM131.629 15.0999C128.816 15.0999 126.359 16.758 125.234 19.3634C124.701 20.607 124.583 21.9984 124.849 23.3604C125.116 24.6928 125.767 25.9067 126.744 26.8837C127.721 27.8609 128.935 28.4825 130.268 28.7787C131.599 29.0451 132.992 28.8971 134.265 28.3937C135.537 27.8609 136.603 26.9726 137.374 25.8475C138.113 24.6928 138.528 23.39 138.528 22.028C138.498 18.2384 135.507 15.0999 131.629 15.0999ZM150.549 16.5506C149.689 15.5736 148.447 15.0999 146.878 15.0999C145.9 15.0999 145.012 15.3072 144.301 15.692C143.916 15.9289 143.561 16.225 143.235 16.5506L143.147 16.6395V15.5736C143.147 15.544 143.117 15.4848 143.088 15.4552C143.058 15.4256 142.998 15.396 142.939 15.396H140.215C140.186 15.396 140.126 15.4256 140.096 15.4552C140.068 15.4848 140.038 15.544 140.038 15.5736V28.3937C140.038 28.4233 140.038 28.4529 140.068 28.4825C140.068 28.5121 140.096 28.5417 140.126 28.5417C140.156 28.5715 140.215 28.6011 140.245 28.6011H143.205C143.235 28.6011 143.324 28.5715 143.324 28.5417C143.384 28.5121 143.384 28.4529 143.384 28.3937V20.9622C143.384 20.074 143.65 19.3042 144.124 18.8008C144.627 18.268 145.308 18.0014 146.196 18.0014C146.995 18.0014 147.587 18.2384 147.973 18.712C148.358 19.1858 148.565 19.8668 148.565 20.7254V28.3937C148.565 28.4529 148.565 28.5121 148.594 28.5417C148.654 28.5715 148.713 28.6011 148.773 28.6011H151.674C151.733 28.6011 151.792 28.5715 151.822 28.5417L151.882 28.4825C151.882 28.4529 151.91 28.4233 151.91 28.3937V20.3404C151.852 18.7712 151.407 17.4982 150.549 16.5506ZM119.993 21.7616C119.993 23.8638 118.632 25.433 116.618 25.433C114.664 25.433 113.243 23.923 113.243 21.7616C113.243 19.7186 114.457 18.0902 116.618 18.0902C118.691 18.1198 119.993 19.6594 119.993 21.7616ZM122.984 15.396H120.26C120.23 15.396 120.201 15.396 120.171 15.4256C120.141 15.4256 120.112 15.4552 120.112 15.4848C120.082 15.5144 120.053 15.5736 120.053 15.6032V16.8172L119.964 16.7283C119.046 15.6624 117.714 15.1295 115.996 15.1295C112.266 15.1295 109.897 18.031 109.897 21.7912C109.897 23.6565 110.46 25.2553 111.555 26.4989C112.651 27.772 114.161 28.4233 115.996 28.4233C117.595 28.4233 118.868 27.9201 119.757 26.9429L119.845 26.8245V28.2161C119.845 29.9629 118.424 31.3249 116.796 31.3249C115.138 31.3249 114.338 30.3479 113.953 29.6373C113.865 29.4893 113.835 29.4597 113.746 29.4893C113.45 29.6373 111.2 30.8215 111.081 30.8807C111.022 30.9103 111.022 30.9993 111.052 31.0585C111.97 33.1013 114.013 34.4041 116.825 34.4041C120.349 34.4041 123.191 31.9171 123.191 27.8016V15.5736C123.191 15.544 123.191 15.4848 123.132 15.4552C123.073 15.4256 123.043 15.396 122.984 15.396ZM105.13 21.9984C105.13 24.2487 103.887 25.9067 101.725 25.9067C99.5641 25.9067 98.3206 24.1598 98.3206 21.9984C98.3206 19.8964 99.5345 18.1198 101.725 18.1198C103.828 18.1198 105.13 19.689 105.13 21.9984ZM108.15 15.4256H105.426C105.397 15.4256 105.338 15.4552 105.278 15.4848C105.249 15.5144 105.249 15.5736 105.249 15.6032V16.8172L105.13 16.7283C104.242 15.6624 102.88 15.1295 101.104 15.1295C97.2843 15.1295 95.0341 18.0902 95.0341 21.9984C95.0341 25.9067 97.2843 28.8971 101.104 28.8971C102.851 28.8971 104.242 28.3641 105.13 27.2983L105.249 27.1799V28.3937C105.249 28.4529 105.278 28.4825 105.278 28.5417C105.338 28.5715 105.397 28.6011 105.426 28.6011H108.15C108.21 28.6011 108.269 28.5715 108.269 28.5417C108.328 28.5121 108.328 28.4529 108.328 28.3937V15.6032C108.328 15.5736 108.328 15.5144 108.269 15.4848C108.239 15.4848 108.21 15.4256 108.15 15.4256ZM95.1525 15.5736C95.1525 15.544 95.1229 15.544 95.1229 15.4848C95.0933 15.4552 95.0637 15.4256 95.0341 15.4256C95.0045 15.396 94.9749 15.396 94.9453 15.396H91.9549C91.9253 15.396 91.8957 15.396 91.8661 15.4256C91.8069 15.4552 91.8069 15.4848 91.7773 15.544L89.1422 23.9822L86.4775 15.5736C86.4478 15.5144 86.4479 15.4848 86.3886 15.4552C86.359 15.4552 86.3294 15.4256 86.2702 15.4256H83.4576C83.3982 15.4256 83.3686 15.4552 83.339 15.4552C83.3094 15.4848 83.2798 15.5144 83.2798 15.5736L80.5264 24.1006L77.8321 15.544C77.8321 15.4848 77.8024 15.4552 77.7728 15.4256C77.7432 15.4256 77.684 15.396 77.6544 15.396H74.6047C74.5751 15.396 74.5455 15.396 74.4863 15.4256C74.4567 15.4256 74.4567 15.4552 74.4567 15.4848C74.4271 15.5144 74.4271 15.544 74.4271 15.5736V15.692L78.8979 28.4825C78.8979 28.5121 78.9275 28.5417 78.9571 28.5715C79.0164 28.6011 79.046 28.6011 79.0756 28.6011H81.7994H81.8587C81.8884 28.6011 81.8884 28.5715 81.918 28.5715C81.9476 28.5715 81.9476 28.5417 81.9476 28.5417C81.9476 28.5417 81.9772 28.5121 81.9772 28.4825L84.7602 20.1332L87.5138 28.4529C87.5138 28.4825 87.5434 28.5417 87.573 28.5715C87.6026 28.5715 87.6618 28.6011 87.6914 28.6011H90.4449C90.5041 28.6011 90.5633 28.5715 90.5633 28.5715C90.5929 28.5417 90.6225 28.5121 90.6522 28.4529L95.1525 15.692V15.5736Z" fill="#1D1D1B"/>
</svg>
