<svg width="96" height="96" viewBox="0 0 96 96" fill="none" xmlns="http://www.w3.org/2000/svg">
<path fill-rule="evenodd" clip-rule="evenodd" d="M96 48C96 21.4903 74.5097 0 48 0C21.4903 0 0 21.4903 0 48C0 74.5097 21.4903 96 48 96C74.5097 96 96 74.5097 96 48ZM72.3232 21.6485L54.0341 42.9081H54.033L73.9244 71.8565H59.2953L45.9004 52.3627L29.1302 71.8565H24.796L43.9762 49.5625L24.796 21.6485H39.4251L52.1088 40.108L67.9893 21.6485H72.3232ZM46.1544 47.0288L48.0978 49.8084V49.8095L61.3343 68.7422H67.9913L51.7708 45.5404L49.8274 42.7608L37.3489 24.9112H30.6919L46.1544 47.0288Z" fill="#050505"/>
</svg>
