<svg width="32" height="32" viewBox="0 0 32 32" fill="none" xmlns="http://www.w3.org/2000/svg">
<g clip-path="url(#clip0_714_42454)">
<path d="M21.06 21.69C20.62 22.32 20.04 22.82 19.36 23.17C18.61 23.57 17.73 23.78 16.76 23.78C15.95 23.78 15.21 23.64 14.55 23.36C13.9 23.09 13.34 22.7 12.87 22.22C12.4 21.74 12 21.12 11.68 20.38C11.41 19.75 11.19 18.95 11.05 18.01H9.34V16.5H10.91V15.25H9.34V13.74H11.12C11.3 12.85 11.55 12.08 11.87 11.48C12.23 10.78 12.66 10.18 13.15 9.71C13.64 9.23 14.22 8.86 14.85 8.61C15.5 8.35 16.19 8.22 16.91 8.22C17.88 8.22 18.71 8.4 19.38 8.77C19.98 9.1 20.51 9.54 20.93 10.07L20.14 10.94C20.14 10.94 20.09 11 19.95 11.1C19.95 11.1 19.92 11.13 19.81 11.13C19.78 11.13 19.74 11.12 19.72 11.11L19.45 10.89L19.09 10.6C18.95 10.48 18.79 10.38 18.61 10.28C18.44 10.2 18.22 10.12 17.93 10.04C17.69 9.97 17.39 9.94 17.02 9.94C16.08 9.94 15.28 10.27 14.64 10.91C14.01 11.53 13.56 12.47 13.3 13.69V13.74H19.11V14.58C19.11 14.75 19.04 14.9 18.91 15.04C18.76 15.18 18.58 15.25 18.36 15.25H13.12L13.1 15.63V16.27L13.12 16.5H18.1V17.33C18.1 17.5 18.04 17.66 17.91 17.79C17.76 17.93 17.58 18.01 17.36 18.01H13.25V18.05C13.47 19.38 13.89 20.38 14.5 21.03C15.12 21.71 15.93 22.05 16.89 22.05C17.44 22.05 17.91 21.97 18.28 21.81C18.63 21.67 18.92 21.49 19.14 21.29L19.65 20.8C19.71 20.74 19.8 20.67 19.88 20.67C19.88 20.67 19.92 20.67 19.98 20.69C19.98 20.69 20.01 20.71 20.07 20.77L21.06 21.69Z" fill="#1D1D1B"/>
<path d="M16 2C23.72 2 30 8.28 30 16C30 23.72 23.72 30 16 30C8.28 30 2 23.72 2 16C2 8.28 8.28 2 16 2ZM16 0C7.16 0 0 7.16 0 16C0 24.84 7.16 32 16 32C24.84 32 32 24.84 32 16C32 7.16 24.84 0 16 0Z" fill="#1D1D1B"/>
</g>
<defs>
<clipPath id="clip0_714_42454">
<rect width="32" height="32" fill="white"/>
</clipPath>
</defs>
</svg>
