<svg width="32" height="32" viewBox="0 0 32 32" fill="none" xmlns="http://www.w3.org/2000/svg">
<path d="M21.4399 22.3335C21.4399 23.3724 22.2899 24.2224 23.3288 24.2224C24.3677 24.2224 25.2177 23.3724 25.2177 22.3335C25.2177 21.2946 24.3677 20.4446 23.3288 20.4446C22.2899 20.4446 21.4399 21.2946 21.4399 22.3335Z" fill="#050505"/>
<path d="M23.3288 17.1113C22.2899 17.1113 21.4399 16.2613 21.4399 15.2224C21.4399 14.1835 22.2899 13.3335 23.3288 13.3335C24.3677 13.3335 25.2177 14.1835 25.2177 15.2224C25.2177 16.2613 24.3677 17.1113 23.3288 17.1113Z" fill="#050505"/>
<path d="M6.77344 22.2224C6.77344 23.2613 7.62344 24.1113 8.66233 24.1113C9.70122 24.1113 10.5512 23.2613 10.5512 22.2224C10.5512 21.1835 9.70122 20.3335 8.66233 20.3335C7.62344 20.3335 6.77344 21.1835 6.77344 22.2224Z" fill="#050505"/>
<path d="M8.66233 17.1113C7.62344 17.1113 6.77344 16.2613 6.77344 15.2224C6.77344 14.1835 7.62344 13.3335 8.66233 13.3335C9.70122 13.3335 10.5512 14.1835 10.5512 15.2224C10.5512 16.2613 9.70122 17.1113 8.66233 17.1113Z" fill="#050505"/>
<path d="M14.1069 22.3335C14.1069 23.3724 14.9569 24.2224 15.9958 24.2224C17.0347 24.2224 17.8847 23.3724 17.8847 22.3335C17.8847 21.2946 17.0347 20.4446 15.9958 20.4446C14.9569 20.4446 14.1069 21.2946 14.1069 22.3335Z" fill="#050505"/>
<path d="M15.9958 17.1113C14.9569 17.1113 14.1069 16.2613 14.1069 15.2224C14.1069 14.1835 14.9569 13.3335 15.9958 13.3335C17.0347 13.3335 17.8847 14.1835 17.8847 15.2224C17.8847 16.2613 17.0347 17.1113 15.9958 17.1113Z" fill="#050505"/>
<rect x="30.2227" y="5.3335" width="23.1111" height="28.4444" rx="0.857143" transform="rotate(90 30.2227 5.3335)" stroke="#050505" stroke-width="2.05714" stroke-linejoin="round"/>
<path d="M8.88916 8.88894V1.77783" stroke="#050505" stroke-width="2.05714" stroke-linecap="round"/>
<path d="M23.1113 8.88894V1.77783" stroke="#050505" stroke-width="2.05714" stroke-linecap="round"/>
</svg>
