<svg width="32" height="32" viewBox="0 0 32 32" fill="none" xmlns="http://www.w3.org/2000/svg">
<path d="M27.08 6H13.82C13.42 4.84 12.3 4 11 4C9.7 4 8.58 4.84 8.18 6H4.92C4.42 6 4 6.44 4 7C4 7.56 4.42 8 4.92 8H8.18C8.58 9.16 9.7 10 11 10C12.3 10 13.42 9.16 13.82 8H27.08C27.58 8 28 7.56 28 7C28 6.44 27.58 6 27.08 6ZM11 8.5C10.56 8.5 10.16 8.3 9.9 8C9.64 7.74 9.5 7.38 9.5 7C9.5 6.62 9.64 6.26 9.9 6C10.16 5.7 10.56 5.5 11 5.5C11.44 5.5 11.84 5.7 12.1 6C12.36 6.26 12.5 6.62 12.5 7C12.5 7.38 12.36 7.74 12.1 8C11.84 8.3 11.44 8.5 11 8.5Z" fill="#050505"/>
<path d="M27.08 24H19.82C19.42 22.84 18.3 22 17 22C15.7 22 14.58 22.84 14.18 24H4.92C4.42 24 4 24.44 4 25C4 25.56 4.42 26 4.92 26H14.18C14.58 27.16 15.7 28 17 28C18.3 28 19.42 27.16 19.82 26H27.08C27.58 26 28 25.56 28 25C28 24.44 27.58 24 27.08 24ZM18.1 26C17.84 26.3 17.44 26.5 17 26.5C16.56 26.5 16.16 26.3 15.9 26C15.64 25.74 15.5 25.38 15.5 25C15.5 24.62 15.64 24.26 15.9 24C16.16 23.7 16.56 23.5 17 23.5C17.44 23.5 17.84 23.7 18.1 24C18.36 24.26 18.5 24.62 18.5 25C18.5 25.38 18.36 25.74 18.1 26Z" fill="#050505"/>
<path d="M27.98 15.8C27.88 14.24 26.6 13 25 13C23.7 13 22.58 13.84 22.18 15H4.92C4.42 15 4 15.44 4 16C4 16.56 4.42 17 4.92 17H22.18C22.58 18.16 23.7 19 25 19C26.6 19 27.88 17.76 27.98 16.2V15.8ZM25 17.5C24.56 17.5 24.16 17.3 23.9 17C23.64 16.74 23.5 16.38 23.5 16C23.5 15.62 23.64 15.26 23.9 15C24.16 14.7 24.56 14.5 25 14.5C25.44 14.5 25.84 14.7 26.1 15C26.36 15.26 26.5 15.62 26.5 16C26.5 16.38 26.36 16.74 26.1 17C25.84 17.3 25.44 17.5 25 17.5Z" fill="#050505"/>
</svg>
