<svg width="109" height="40" viewBox="0 0 109 40" fill="none" xmlns="http://www.w3.org/2000/svg">
<path d="M30.9487 0.0480966C30.7322 0.0817777 30.4435 0.14914 30.2991 0.197255C29.7554 0.375284 5.87074 9.61832 5.59167 9.75785C3.78252 10.6721 2.68067 12.6881 2.91643 14.656C3.08484 16.0466 3.72959 17.2062 4.83144 18.0819C4.99985 18.2166 5.12495 18.3417 5.10089 18.3658C5.08164 18.385 4.56199 18.5967 3.94611 18.8325C3.33504 19.0683 2.67104 19.3521 2.47377 19.4628C1.66061 19.9295 0.938877 20.7042 0.515458 21.5607C-0.393929 23.3939 -0.081177 25.5879 1.30456 27.0555C1.56919 27.3394 3.84026 29.1966 8.84429 33.2287C12.785 36.4044 16.1627 39.1037 16.3552 39.2288C17.789 40.1574 19.6078 40.2536 21.1812 39.4838C22.3648 38.9016 23.279 37.8286 23.6784 36.5535C23.7506 36.3322 23.8901 35.6056 23.9959 34.9465C24.097 34.2873 24.1932 33.7387 24.198 33.7291C24.2077 33.7195 24.429 33.8735 24.684 34.0659C25.3721 34.5808 26.0553 34.8935 26.8588 35.0619C27.2534 35.1485 28.3167 35.1341 28.7353 35.0427C30.5301 34.6433 31.9014 33.4019 32.4354 31.689C32.5317 31.3907 33.0994 27.8686 34.567 18.4812C36.7755 4.35445 36.7081 4.85486 36.5157 3.92141C36.0586 1.69846 34.158 0.0865893 31.8869 0.00479247C31.5549 -0.00964226 31.1796 0.00960404 30.9487 0.0480966ZM32.3921 3.2526C32.599 3.3344 32.7578 3.44026 32.9455 3.63272C33.2486 3.93585 33.4026 4.21492 33.4796 4.60947C33.5325 4.85967 33.417 5.64396 31.5261 17.7643C30.2558 25.9055 29.4811 30.7459 29.4234 30.9047C29.2887 31.2656 28.923 31.6505 28.5284 31.843C28.2398 31.9825 28.1628 31.997 27.773 32.0018C27.1379 32.0018 27.0224 31.944 25.8773 31.025C25.3336 30.5872 24.8572 30.2071 24.8235 30.1734C24.7754 30.1301 24.9486 28.9224 25.7281 23.9376C26.7578 17.3505 26.7818 17.1581 26.6423 16.3834C26.2574 14.2615 24.5974 12.6544 22.4611 12.3417C21.951 12.2695 21.1716 12.3128 20.6519 12.4379C20.4402 12.4908 17.765 13.5013 14.7096 14.6801C11.6543 15.8637 9.01751 16.879 8.85392 16.9415L8.56041 17.0522L7.62697 16.3064C6.48662 15.3922 6.42888 15.3393 6.24123 14.988C5.73121 14.0353 6.16906 12.8758 7.18911 12.4668C8.33908 12.0049 31.2614 3.16118 31.3577 3.14194C31.5982 3.08901 32.1083 3.14675 32.3921 3.2526ZM22.5236 15.5847C22.87 15.7435 23.2453 16.1236 23.4089 16.4748C23.6447 16.9897 23.6543 16.9223 22.7642 22.624C22.3215 25.4821 21.951 27.8253 21.9462 27.8301C21.9414 27.8398 19.5597 25.9392 16.6631 23.6008C13.7617 21.2623 11.4041 19.3377 11.4281 19.3185C11.4618 19.2848 20.8732 15.628 21.2774 15.4933C21.5805 15.3874 22.1964 15.4355 22.5236 15.5847ZM14.623 25.9632C18.2509 28.8887 21.263 31.3137 21.3111 31.3522C21.3929 31.4196 21.3833 31.511 21.0657 33.5319C20.6952 35.8895 20.6711 35.9761 20.2429 36.3755C20.1082 36.5006 19.8772 36.6594 19.7233 36.7315C19.4875 36.8422 19.3865 36.8615 18.9919 36.8615C18.5781 36.8615 18.5011 36.847 18.2413 36.7171C17.8468 36.5198 3.63817 25.0587 3.45533 24.7892C3.22438 24.4524 3.13777 24.1493 3.14258 23.7259C3.14739 23.0811 3.45052 22.5278 3.96536 22.2246C4.17707 22.1044 7.91566 20.6272 7.98302 20.6416C8.00227 20.6416 10.9903 23.0378 14.623 25.9632Z" fill="#050505"/>
<path d="M53.4957 9.12754C52.5382 9.22858 51.5855 9.50284 51.0081 9.84928C50.3826 10.2198 49.7812 10.98 49.4973 11.7547C49.2326 12.4908 49.1557 12.972 49.1268 14.1604L49.0979 15.2334H47.8806H46.6584V16.5326V17.8317H47.8854H49.1124V24.2551V30.6786H50.7242H52.3361V24.2551V17.8317H54.381H56.4259V16.5326V15.2334H54.381H52.3361V14.4251C52.3361 13.5013 52.389 13.1019 52.5574 12.7314C52.7691 12.2647 53.0915 12.0145 53.7122 11.8413C53.9336 11.7787 54.2704 11.7547 55.2134 11.7354L56.4259 11.7114V10.393V9.07461L55.1653 9.07943C54.4676 9.08424 53.717 9.1083 53.4957 9.12754Z" fill="#050505"/>
<path d="M58.0861 9.13234C58.0716 9.16602 58.0668 14.0353 58.0716 19.9488L58.0861 30.7026H59.6739H61.2617L61.2761 19.8862L61.2858 9.0746H59.6979C58.471 9.0746 58.1005 9.08904 58.0861 9.13234Z" fill="#050505"/>
<path d="M100.5 13.3329V15.2334L99.2395 15.2431L97.974 15.2575L97.9596 16.5422L97.95 17.8317H99.225H100.5V22.4123C100.5 27.2239 100.51 27.4741 100.721 28.1766C101.015 29.1726 101.766 29.9665 102.752 30.3274C103.507 30.6064 103.801 30.6401 105.663 30.6642L107.381 30.6882V29.365V28.0419L106.12 28.0226C104.638 27.9986 104.431 27.9553 104.075 27.5848C103.709 27.195 103.724 27.4356 103.724 22.345V17.8317H105.552H107.381V16.5326V15.2334H105.552H103.724V13.3329V11.4323H102.112H100.5V13.3329Z" fill="#050505"/>
<path d="M71.058 15.0458C70.4807 15.1083 69.6146 15.3104 69.0805 15.5077C68.1037 15.8733 67.3916 16.3112 66.6891 16.9848C65.6017 18.0241 64.9281 19.2318 64.5865 20.7715C64.3988 21.6232 64.3507 22.2102 64.3796 23.2639C64.4133 24.4957 64.5624 25.2896 64.9473 26.276C65.722 28.2728 67.3676 29.8413 69.3884 30.5102C70.37 30.8373 71.1976 30.9432 72.4245 30.9047C74.5368 30.8373 76.038 30.2215 77.4045 28.8502C78.1647 28.0947 78.6844 27.3056 79.0212 26.4059L79.1367 26.1076H77.4141H75.6916L75.5087 26.4299C75.2297 26.9159 74.5897 27.5318 74.1086 27.7772C73.4927 28.0947 73.1174 28.1814 72.2609 28.2102C71.4622 28.2391 71.0484 28.191 70.548 28.0226C68.9458 27.4741 67.8872 26.1412 67.6659 24.385L67.6322 24.1348H73.5264C76.9282 24.1348 79.4302 24.1156 79.4446 24.0915C79.4591 24.0675 79.4975 23.7162 79.5264 23.312C79.613 22.1573 79.4783 20.9014 79.1559 19.9199C78.5593 18.0819 77.3371 16.648 75.6579 15.8012C74.3636 15.1516 72.6892 14.8773 71.058 15.0458ZM73.1944 17.8268C73.9498 18.0289 74.7341 18.4812 75.2249 19.0009C75.8215 19.6264 76.1246 20.3289 76.2257 21.2816L76.2545 21.5847H71.9674C68.2818 21.5847 67.6851 21.5751 67.6851 21.5173C67.6851 21.3634 67.8295 20.7667 67.9498 20.4299C68.4454 19.049 69.5761 18.0578 71.0051 17.7547C71.4766 17.6584 72.6988 17.6969 73.1944 17.8268Z" fill="#050505"/>
<path d="M88.3797 15.0457C85.6804 15.3296 83.5537 16.7731 82.4566 19.0538C81.6435 20.7571 81.4173 23.0426 81.86 25.0442C82.3748 27.3441 83.751 29.1436 85.7526 30.1252C86.8448 30.6593 87.7109 30.8662 89.0533 30.9047C90.2658 30.9432 91.0886 30.8325 92.0798 30.5053C93.8553 29.9135 95.4383 28.4508 96.1889 26.6994C96.2755 26.4925 96.3621 26.2759 96.3813 26.2134L96.415 26.1075H94.6829C93.7254 26.1075 92.9459 26.1268 92.9459 26.1508C92.9459 26.1749 92.8352 26.3625 92.7005 26.5694C92.1135 27.4644 91.2714 28.0033 90.184 28.1765C89.7077 28.2535 88.5048 28.215 88.0862 28.1043C87.6243 27.984 86.917 27.6232 86.508 27.2912C86.0557 26.9303 85.6227 26.3914 85.3821 25.891C85.1752 25.4628 84.9587 24.6641 84.9587 24.3465V24.1348H90.848H96.7374L96.7807 23.8076C96.7999 23.6296 96.8192 23.0618 96.8144 22.547C96.8144 21.4307 96.7085 20.733 96.415 19.8525C96.0445 18.741 95.5201 17.899 94.7069 17.0858C94.1295 16.5133 93.6147 16.1428 92.9074 15.7915C91.6227 15.1468 89.9868 14.8821 88.3797 15.0457ZM90.1119 17.7595C92.0269 18.0914 93.3212 19.4243 93.504 21.243L93.5377 21.5847H89.2458C86.8881 21.5847 84.9587 21.575 84.9587 21.5654C84.9587 21.5558 84.9875 21.3874 85.026 21.1901C85.1704 20.4395 85.5072 19.6937 85.945 19.1692C86.4887 18.5052 87.3933 17.9567 88.2209 17.7835C88.7406 17.6728 89.5681 17.6632 90.1119 17.7595Z" fill="#050505"/>
</svg>
