<svg width="32" height="32" viewBox="0 0 32 32" fill="none" xmlns="http://www.w3.org/2000/svg">
<path fill-rule="evenodd" clip-rule="evenodd" d="M6.85275 10.6475C6.85275 10.1308 7.27166 9.71186 7.78842 9.71186L24.2087 9.71186C24.7255 9.71186 25.1444 10.1308 25.1444 10.6475C25.1444 11.1643 24.7255 11.5832 24.2087 11.5832L7.78842 11.5832C7.27166 11.5832 6.85275 11.1643 6.85275 10.6475Z" fill="#050505"/>
<path fill-rule="evenodd" clip-rule="evenodd" d="M28.7237 10.6499L27.4343 3.10878C27.3272 2.3449 26.6826 1.77734 25.9221 1.77734H5.9095C5.13864 1.77734 4.48858 2.36017 4.39368 3.1364L3.27344 10.6499V13.9401C3.27344 15.5622 4.54707 16.94 6.19429 16.94C7.21174 16.94 8.09668 16.4072 8.61481 15.6213C8.81347 15.3327 9.12401 15.1625 9.45937 15.1625C9.80062 15.1625 10.1163 15.339 10.3143 15.637L10.3252 15.6527C10.8475 16.4048 11.7124 16.9118 12.7043 16.9118C13.6828 16.9118 14.6082 16.4397 15.148 15.6214C15.3467 15.3328 15.6572 15.1625 15.9926 15.1625C16.328 15.1625 16.6715 15.3493 16.844 15.6323C16.8535 15.6478 16.8634 15.6631 16.8738 15.678C17.3958 16.4317 18.2617 16.94 19.2549 16.94C20.2723 16.94 21.1572 16.4072 21.6754 15.6213C21.874 15.3327 22.1846 15.1625 22.5199 15.1625C22.8612 15.1625 23.1769 15.339 23.3749 15.637L23.3858 15.6527C23.908 16.4048 24.773 16.9118 25.7649 16.9118C27.4121 16.9118 28.7237 15.5339 28.7237 13.9119L28.7237 10.6499ZM26.8144 10.7871L25.5908 3.71467H6.24691L5.18273 10.7696V12.3726V13.9401C5.18273 14.5981 5.64874 15.0686 6.19429 15.0686C6.53894 15.0686 6.85749 14.8893 7.05459 14.588L7.06381 14.5739C7.58434 13.8088 8.45698 13.2912 9.45937 13.2912C10.4694 13.2912 11.3473 13.8166 11.8665 14.5913C12.0655 14.874 12.3726 15.0404 12.7043 15.0404C13.0882 15.0404 13.4124 14.8562 13.5878 14.588L13.5971 14.5739C14.1176 13.8088 14.9902 13.2912 15.9926 13.2912C16.9404 13.2912 17.893 13.7821 18.4239 14.6292C18.6231 14.906 18.927 15.0686 19.2549 15.0686C19.5995 15.0686 19.9181 14.8893 20.1151 14.588L20.1244 14.5739C20.6449 13.8088 21.5175 13.2912 22.5199 13.2912C23.5299 13.2912 24.4078 13.8166 24.9271 14.5913C25.126 14.874 25.4332 15.0404 25.7649 15.0404C26.3104 15.0404 26.8144 14.5699 26.8144 13.9119L26.8144 12.3662L26.8144 10.7871Z" fill="#050505"/>
<path fill-rule="evenodd" clip-rule="evenodd" d="M25.9709 30.2218C26.8282 30.2218 27.5233 29.5035 27.5233 28.6174V18.242C27.3161 18.301 26.7891 18.419 26.3389 18.419C25.8887 18.419 25.6472 18.3769 25.5828 18.3558V28.2163H16.5043V21.2618C16.5043 20.435 15.8341 19.7648 15.0073 19.7648H11.9401C11.1133 19.7648 10.443 20.435 10.443 21.2618L10.443 28.2163H7.00757V18.3306C6.87893 18.3598 6.51857 18.4183 6.10622 18.4183C5.69388 18.4183 5.24167 18.3389 5.06711 18.2992V28.6174C5.06711 29.5035 5.76213 30.2218 6.61948 30.2218H25.9709ZM12.3144 28.2163H14.633L14.633 21.6361H12.3144L12.3144 28.2163Z" fill="#050505"/>
</svg>
