<svg width="32" height="32" viewBox="0 0 32 32" fill="none" xmlns="http://www.w3.org/2000/svg">
<path d="M26.6866 17.9792L28.7666 20.0592L21.0266 27.7992L17.9666 28.7992L18.9466 25.7392L26.6866 17.9792ZM26.6866 15.9792C26.1866 15.9792 25.6866 16.1592 25.2866 16.5392C25.2466 16.5792 25.2266 16.5992 25.1866 16.6392L17.5266 24.2992C17.3066 24.5192 17.1266 24.8192 17.0266 25.1192L16.0466 28.1792C15.8066 28.8992 16.0066 29.6792 16.5466 30.1992C16.9266 30.5792 17.4466 30.7792 17.9666 30.7792C18.1666 30.7792 18.3866 30.7392 18.5866 30.6792L21.6466 29.6792C21.9466 29.5792 22.2266 29.4192 22.4466 29.1992L30.1866 21.4592C30.9666 20.6792 30.9666 19.4192 30.1866 18.6392L28.1066 16.5592C27.7066 16.1592 27.2066 15.9792 26.6866 15.9792Z" fill="#050505"/>
<path d="M17.7266 16.8392C15.7666 16.5392 13.7666 16.5392 11.8066 16.8392C8.68656 17.3192 5.66656 18.5992 3.02656 20.6592C1.88656 21.5592 1.22656 22.9392 1.22656 24.3992V29.8392C1.22656 30.3592 1.64656 30.7992 2.18656 30.7992H14.5066C14.1266 30.1992 13.9466 29.5192 13.9466 28.7992H3.22656V24.3992C3.22656 23.5592 3.60656 22.7592 4.26656 22.2392C6.98656 20.1192 10.1666 18.9192 13.4066 18.6592C13.8466 18.6192 14.2866 18.5992 14.7266 18.5992H14.8066C15.2466 18.5992 15.6866 18.6192 16.1266 18.6592C17.3266 18.7592 18.5266 18.9792 19.6866 19.3392L21.2666 17.7592C20.1266 17.3192 18.9266 17.0192 17.7266 16.8392Z" fill="#050505"/>
<path fill-rule="evenodd" clip-rule="evenodd" d="M14.7666 1.19922C11.0666 1.19922 8.06656 4.19922 8.06656 7.89922C8.06656 11.5992 11.0666 14.5992 14.7666 14.5992C18.4666 14.5992 21.4666 11.5992 21.4666 7.89922C21.4666 4.19922 18.4666 1.19922 14.7666 1.19922ZM14.7666 12.5992C12.1666 12.5992 10.0666 10.4992 10.0666 7.89922C10.0666 5.29922 12.1666 3.19922 14.7666 3.19922C17.3666 3.19922 19.4666 5.29922 19.4666 7.89922C19.4666 10.4992 17.3666 12.5992 14.7666 12.5992Z" fill="#050505"/>
</svg>
