<svg width="180" height="40" viewBox="0 0 180 40" fill="none" xmlns="http://www.w3.org/2000/svg">
<path d="M0.99994 20.0508C0.999941 16.1248 0.999941 12.277 0.999941 8.34661C2.25287 8.34661 3.31309 8.31372 4.3684 8.37115C4.61353 8.38449 4.9229 8.65658 5.06572 8.89253C6.86759 11.8693 8.65266 14.8563 10.423 17.8519C11.0558 18.9227 11.6375 20.0236 12.2989 21.2121C12.6729 20.5299 13.0085 19.9149 13.3465 19.3013C15.0558 16.1979 16.8019 13.114 18.4582 9.9825C19.1607 8.65443 20.1595 8.10395 21.6127 8.23558C21.9947 8.27018 22.3825 8.2408 22.7232 8.2408C22.8843 15.7991 23.0439 23.2845 23.208 30.9776C22.2824 30.9776 21.2577 31.0266 20.244 30.9426C19.9953 30.922 19.6344 30.4948 19.5805 30.2067C19.4046 29.2686 19.2676 28.3091 19.2573 27.3564C19.2083 22.8238 19.2067 18.2908 19.1856 13.758C19.1844 13.5127 19.1597 13.2675 18.9809 12.9766C18.6095 13.6641 18.2229 14.3438 17.8694 15.0403C16.3208 18.0911 14.7757 21.1437 13.2444 24.2032C12.932 24.8274 12.7281 25.5076 12.3962 26.1197C11.9496 26.9434 11.3588 26.9315 10.8891 26.1173C9.08563 22.9914 7.30113 19.8545 5.48994 16.733C4.77923 15.5082 4.01694 14.3133 3.2475 13.0546C3.2475 14.7337 3.22515 16.3303 3.252 17.926C3.31418 21.6216 3.41741 25.3165 3.46893 29.0122C3.49331 30.7609 2.75308 31.2653 0.999939 30.7406C0.999939 27.2123 0.999939 23.6707 0.99994 20.0508Z" fill="#050505"/>
<path d="M140.071 30.3432C140.122 26.2325 140.217 22.1971 140.212 18.1619C140.208 15.0206 140.079 11.8794 140.004 8.66175C140.732 8.66175 141.63 8.63406 142.525 8.66681C145.513 8.77613 148.526 8.70642 151.482 9.08086C155.129 9.543 158.195 11.2556 159.763 14.7768C162.034 19.8735 160.852 26.684 154.896 30.0273C153.458 30.8343 151.851 31.0765 150.231 31.0567C147.111 31.0186 143.993 30.9145 140.875 30.8061C140.603 30.7967 140.34 30.5533 140.071 30.3432ZM155.676 15.5534C155.514 15.2576 155.375 14.947 155.188 14.6681C152.566 10.7516 148.528 10.3506 144.353 10.2003C144.316 10.381 144.286 10.4552 144.287 10.5291C144.355 16.0951 144.416 21.6612 144.503 27.2268C144.522 28.4209 144.778 28.7119 145.992 28.885C146.965 29.0238 147.957 29.0661 148.941 29.089C152.093 29.1621 154.32 27.6239 155.638 24.8782C157.086 21.8625 156.919 18.7425 155.676 15.5534Z" fill="#050505"/>
<path d="M137.367 29.7174C137.588 29.9926 137.762 30.2361 137.936 30.4796C137.643 30.6078 137.359 30.8196 137.056 30.8506C135.155 31.0457 133.283 31.0508 131.867 29.4554C131.076 28.5631 130.272 27.6731 129.568 26.7134C128.507 25.2685 127.57 23.7323 126.497 22.2979C126.003 21.6382 125.31 21.1278 124.707 20.5497C124.632 20.5949 124.557 20.64 124.481 20.6852C124.481 20.9575 124.485 21.2298 124.481 21.502C124.438 24.1302 124.409 26.7588 124.343 29.3864C124.314 30.5396 123.834 31.0068 122.684 31.1355C122.58 31.147 122.476 31.1503 122.372 31.153C120.445 31.2031 120.364 31.1217 120.358 29.2508C120.335 22.5836 120.309 15.9164 120.285 9.24918C120.284 8.96775 120.285 8.68632 120.285 8.45845C122.279 8.45845 124.22 8.43915 126.161 8.46623C127.2 8.48072 128.242 8.53661 129.275 8.6422C130.927 8.81097 132.362 9.50602 133.577 10.6287C136.012 12.8769 135.464 17.0368 133.09 18.9194C132.169 19.6495 131.076 20.1628 130.029 20.7947C132.106 23.9879 134.481 27.0256 137.367 29.7174ZM124.481 11.9999C124.481 14.3094 124.481 16.6188 124.481 19.017C125.483 19.0793 126.426 19.2576 127.339 19.1588C128.157 19.0703 129.006 18.7921 129.73 18.3946C131.388 17.4842 131.705 14.3466 130.589 12.5539C129.608 10.9787 126.674 9.89234 124.481 10.2976C124.481 10.8086 124.481 11.3264 124.481 11.9999Z" fill="#050505"/>
<path d="M56.56 25.9929C56.5434 27.3468 56.5664 28.625 56.484 29.8963C56.462 30.2357 56.1795 30.7555 55.9081 30.8389C55.3951 30.9965 54.7994 30.9326 54.2485 30.8695C54.1606 30.8595 54.0713 30.3739 54.0769 30.1101C54.1394 27.1702 54.282 24.2306 54.2816 21.2909C54.281 17.2818 54.175 13.2728 54.1152 9.26369C54.111 8.97922 54.1147 8.69464 54.1147 8.43029C55.7485 7.80039 56.8792 8.15451 58.0103 9.53955C60.8696 13.041 63.7477 16.5271 66.6183 20.0193C67.7714 21.4221 68.9248 22.8247 70.272 24.2144C70.272 23.0904 70.2742 21.9663 70.2716 20.8423C70.2642 17.7211 70.2643 14.5998 70.2394 11.4787C70.2334 10.7262 70.1519 9.97353 70.087 9.22252C70.0336 8.60451 70.2335 8.21862 70.91 8.17209C71.6861 8.1187 72.3866 8.53526 72.4203 9.16142C72.4999 10.6419 72.578 12.1245 72.5827 13.6065C72.601 19.3124 72.5901 25.0184 72.5901 30.8383C71.8606 30.8383 71.1426 30.8597 70.4277 30.8225C70.2604 30.8137 70.0698 30.6341 69.9465 30.4861C66.6377 26.5123 63.3346 22.5337 60.0345 18.5526C58.8282 17.0972 57.6323 15.6332 56.3977 14.1319C56.4524 18.1027 56.5062 22.0087 56.56 25.9929Z" fill="#050505"/>
<path d="M84.2023 20.2897C83.3024 20.2897 82.4767 20.2897 81.628 20.2897C81.628 23.0316 81.628 25.7808 81.628 28.5591C83.6118 28.5591 85.5576 28.6151 87.4983 28.5398C88.842 28.4876 90.1843 28.2906 91.5153 28.0822C91.9878 28.0082 92.0709 28.2175 92.1265 28.5459C92.3464 29.8451 91.2493 31.1391 89.9277 31.1254C86.3621 31.0884 82.7966 31.0411 79.2311 30.9959C79.0232 30.9933 78.8145 30.9823 78.608 30.9589C77.5144 30.835 77.5416 30.7908 77.557 29.6875C77.6068 26.1228 77.6174 22.5574 77.6218 18.9923C77.6246 16.8051 77.6113 14.6174 77.5614 12.4309C77.5323 11.16 77.4167 9.89103 77.3334 8.50949C81.7543 8.50949 86.1803 8.50949 90.6151 8.50949C90.45 10.2746 89.811 10.9316 87.8804 10.943C86.0689 10.9537 84.2558 10.722 82.4438 10.5911C82.216 10.5747 81.9908 10.5227 81.7231 10.4807C81.7231 13.0324 81.7231 15.523 81.7231 18.0528C84.0658 18.0528 86.3731 18.0528 88.6807 18.0528C88.5792 19.7005 88.0627 20.2494 86.4601 20.3278C85.7346 20.3634 85.0046 20.3053 84.2023 20.2897Z" fill="#050505"/>
<path d="M28.1005 30.1428C28.0225 22.9192 28.3258 15.7598 27.7054 8.52862C32.1103 8.44783 36.5143 8.36707 40.919 8.28629C40.8015 10.1746 40.2123 10.8204 38.3509 10.8064C36.3511 10.7913 34.3523 10.6363 32.2892 10.5393C32.2892 12.9853 32.2892 15.4869 32.2892 17.9863C34.4982 17.9863 36.7149 17.9863 38.9351 17.9863C39.1214 19.4246 38.377 20.2141 36.8073 20.1778C35.4298 20.1459 34.0531 20.0819 32.676 20.0345C32.4684 20.0273 32.2603 20.0335 31.8617 20.0335C31.9891 22.8113 32.1155 25.5681 32.2459 28.411C33.9679 28.411 35.5794 28.4799 37.1821 28.3916C38.7815 28.3036 40.371 28.0436 41.9686 27.9018C42.147 27.886 42.4941 28.1304 42.5152 28.2875C42.5803 28.7711 42.6027 29.2898 42.4887 29.7576C42.4163 30.055 42.12 30.4128 41.8392 30.5193C41.3416 30.7079 40.7799 30.7987 40.2441 30.8031C36.5236 30.8335 32.8029 30.8428 29.0825 30.8212C28.7086 30.8191 28.04 31.0317 28.1005 30.1428Z" fill="#050505"/>
<path d="M113.901 18.7192C113.35 20.0163 112.939 20.2267 111.604 20.1826C110.153 20.1347 108.7 20.1717 107.198 20.1717C107.198 22.8569 107.198 25.6525 107.198 28.5974C110.61 28.4235 113.996 28.251 117.399 28.0776C117.9 29.5528 117.281 30.7611 115.767 30.7905C111.762 30.8682 107.754 30.8263 103.748 30.8241C103.544 30.824 103.341 30.75 102.945 30.673C102.945 23.3188 102.945 15.9414 102.945 8.45343C107.149 8.45343 111.514 8.45343 115.868 8.45343C115.611 10.396 115.089 10.9157 113.089 10.8854C111.142 10.8559 109.197 10.7144 107.202 10.6198C107.202 13.046 107.202 15.5309 107.202 17.9933C109.407 17.9933 111.604 17.9933 113.915 17.9933C113.915 18.1677 113.915 18.4113 113.901 18.7192Z" fill="#050505"/>
<path d="M173.418 20.2329C171.784 20.2329 170.224 20.2329 168.48 20.2329C168.57 23.0314 168.657 25.7725 168.751 28.7026C172.186 28.5195 175.543 28.3406 178.998 28.1564C178.998 28.4034 179.003 28.8346 178.997 29.2657C178.982 30.2476 178.728 30.5873 177.727 30.6743C176.356 30.7934 174.976 30.8812 173.6 30.8788C170.686 30.8737 167.772 30.802 164.858 30.7547C164.758 30.753 164.659 30.7194 164.344 30.6603C164.344 23.3298 164.344 15.978 164.344 8.44745C168.566 8.44745 172.969 8.44745 177.367 8.44745C177.252 10.1143 176.686 10.764 174.944 10.7843C173.258 10.804 171.569 10.6487 169.881 10.5639C169.521 10.5458 169.162 10.5004 168.739 10.4619C168.739 13.0415 168.739 15.5744 168.739 18.0963C170.978 18.0963 173.204 18.0963 175.432 18.0963C175.572 19.5181 174.977 20.1789 173.418 20.2329Z" fill="#050505"/>
<path d="M49.293 22.8653C49.4058 25.2523 49.4909 27.5631 49.6459 29.8691C49.7025 30.7101 49.3344 30.9815 48.5884 30.9797C48.3024 30.9789 48.0164 30.9916 47.7304 30.9984C46.1859 31.0351 45.8205 30.7399 45.7216 29.1436C45.5947 27.0956 45.5136 25.0437 45.4634 22.9922C45.3585 18.7044 45.2929 14.4157 45.1936 10.1278C45.1805 9.5598 45.0647 8.99423 44.9915 8.38651C46.3759 8.08387 47.7544 7.95689 48.8477 9.1551C49.096 9.42726 49.2968 9.8611 49.2987 10.2217C49.3213 14.41 49.3016 18.5986 49.293 22.8653Z" fill="#050505"/>
</svg>
