<svg width="73" height="22" viewBox="0 0 73 22" fill="none" xmlns="http://www.w3.org/2000/svg">
<path d="M19.1803 6.91357H26.5691V8.29821H23.6638V16.0819H22.0662V8.29821H19.1738V6.91357H19.1803ZM26.2535 9.44344H27.6192V10.7245H27.6449C27.69 10.5434 27.7738 10.3687 27.8962 10.2005C28.0185 10.0322 28.1667 9.87047 28.3406 9.7346C28.5146 9.59225 28.7078 9.48226 28.9204 9.39167C29.133 9.30756 29.352 9.26227 29.571 9.26227C29.7385 9.26227 29.8609 9.26874 29.9253 9.27521C29.9898 9.28168 30.0542 9.29462 30.125 9.30109V10.7116C30.022 10.6922 29.9189 10.6793 29.8094 10.6663C29.6999 10.6534 29.5968 10.6469 29.4937 10.6469C29.2489 10.6469 29.017 10.6987 28.798 10.7957C28.579 10.8928 28.3922 11.0416 28.2311 11.2292C28.0701 11.4233 27.9412 11.6563 27.8446 11.9409C27.748 12.2256 27.7029 12.5492 27.7029 12.918V16.0754H26.247V9.44344H26.2535ZM36.8182 16.0819H35.3881V15.1567H35.3623C35.1819 15.4931 34.9178 15.7584 34.5635 15.959C34.2092 16.1595 33.8485 16.2631 33.4813 16.2631C32.6116 16.2631 31.9803 16.0495 31.5938 15.616C31.2073 15.1825 31.014 14.529 31.014 13.6556V9.44344H32.4699V13.5132C32.4699 14.0955 32.5794 14.5096 32.8049 14.749C33.0239 14.9884 33.3396 15.1114 33.7389 15.1114C34.0482 15.1114 34.2994 15.0661 34.5055 14.969C34.7117 14.872 34.8792 14.749 35.0016 14.5873C35.1304 14.432 35.2206 14.2379 35.2786 14.0179C35.3365 13.7979 35.3623 13.5585 35.3623 13.2997V9.44991H36.8182V16.0819ZM39.2983 13.9532C39.3434 14.3802 39.5044 14.6779 39.7814 14.8526C40.0649 15.0208 40.3999 15.1114 40.7928 15.1114C40.9281 15.1114 41.0827 15.0984 41.2566 15.079C41.4306 15.0596 41.5981 15.0143 41.7462 14.9561C41.9008 14.8978 42.0232 14.8073 42.1263 14.6908C42.2229 14.5743 42.268 14.4255 42.2616 14.2379C42.2551 14.0502 42.1843 13.895 42.0554 13.7785C41.9266 13.6556 41.7655 13.565 41.5658 13.4873C41.3662 13.4162 41.1407 13.3515 40.883 13.2997C40.6253 13.2479 40.3677 13.1897 40.1035 13.1315C39.833 13.0732 39.5689 12.9956 39.3176 12.9115C39.0664 12.8274 38.8409 12.7109 38.6412 12.5621C38.4415 12.4197 38.2805 12.2321 38.1645 12.0057C38.0421 11.7792 37.9842 11.501 37.9842 11.1645C37.9842 10.8022 38.0743 10.5046 38.2483 10.2587C38.4222 10.0128 38.6477 9.81871 38.9118 9.66989C39.1823 9.52108 39.4787 9.41756 39.8072 9.35285C40.1357 9.29462 40.4514 9.26227 40.7477 9.26227C41.0891 9.26227 41.4177 9.30109 41.7269 9.37226C42.0361 9.44344 42.3195 9.5599 42.5708 9.72813C42.822 9.88988 43.0282 10.1034 43.1956 10.3622C43.3631 10.621 43.4662 10.9381 43.5113 11.3069H41.991C41.9202 10.9575 41.7655 10.7181 41.5143 10.6016C41.2631 10.4787 40.9732 10.4204 40.6511 10.4204C40.548 10.4204 40.4256 10.4269 40.2839 10.4463C40.1422 10.4657 40.0134 10.4981 39.8845 10.5434C39.7621 10.5887 39.659 10.6598 39.5689 10.7504C39.4851 10.841 39.44 10.9575 39.44 11.1063C39.44 11.2875 39.5044 11.4298 39.6268 11.5398C39.7492 11.6498 39.9103 11.7404 40.11 11.818C40.3097 11.8892 40.5351 11.9539 40.7928 12.0057C41.0505 12.0574 41.3146 12.1156 41.5852 12.1739C41.8493 12.2321 42.107 12.3098 42.3646 12.3939C42.6223 12.478 42.8478 12.5944 43.0475 12.7433C43.2472 12.8921 43.4082 13.0732 43.5306 13.2932C43.653 13.5132 43.7174 13.7914 43.7174 14.1149C43.7174 14.5096 43.6273 14.8396 43.4469 15.1178C43.2665 15.3896 43.0346 15.616 42.7512 15.7843C42.4677 15.9525 42.1456 16.0819 41.7978 16.1595C41.4499 16.2372 41.102 16.276 40.7606 16.276C40.3419 16.276 39.9554 16.2307 39.6011 16.1337C39.2468 16.0366 38.9376 15.8943 38.6799 15.7066C38.4222 15.5125 38.2161 15.2731 38.0679 14.9884C37.9197 14.7037 37.8424 14.3608 37.8296 13.9661H39.2983V13.9532ZM44.104 9.44344H45.2055V7.4506H46.6614V9.44344H47.9755V10.5369H46.6614V14.0826C46.6614 14.2379 46.6678 14.3673 46.6807 14.4838C46.6936 14.5937 46.7258 14.6908 46.7709 14.7684C46.816 14.8461 46.8869 14.9043 46.9835 14.9431C47.0801 14.982 47.2025 15.0014 47.37 15.0014C47.4731 15.0014 47.5761 15.0014 47.6792 14.9949C47.7823 14.9884 47.8853 14.9755 47.9884 14.9496V16.0819C47.8274 16.1013 47.6663 16.1143 47.5182 16.1337C47.3636 16.1531 47.2089 16.1595 47.0479 16.1595C46.6614 16.1595 46.3522 16.1207 46.1203 16.0495C45.8884 15.9784 45.7015 15.8684 45.5727 15.726C45.4374 15.5837 45.3537 15.409 45.3021 15.1955C45.2571 14.982 45.2248 14.7361 45.2184 14.4643V10.5498H44.1168V9.44344H44.104ZM49.0062 9.44344H50.3848V10.3428H50.4106C50.6167 9.95459 50.9002 9.68284 51.2673 9.51461C51.6345 9.34638 52.0275 9.26227 52.4591 9.26227C52.9809 9.26227 53.4318 9.35285 53.8183 9.54049C54.2048 9.72166 54.5269 9.974 54.7846 10.2975C55.0423 10.621 55.2291 10.9963 55.3579 11.4233C55.4868 11.8504 55.5512 12.3098 55.5512 12.795C55.5512 13.2415 55.4932 13.675 55.3773 14.0891C55.2613 14.5096 55.0874 14.8784 54.8555 15.2019C54.6236 15.5255 54.3272 15.7778 53.9665 15.9719C53.6057 16.166 53.187 16.2631 52.6974 16.2631C52.4849 16.2631 52.2723 16.2437 52.0597 16.2048C51.8471 16.166 51.641 16.1013 51.4477 16.0172C51.2545 15.9331 51.0676 15.8231 50.9066 15.6872C50.7391 15.5513 50.6038 15.3961 50.4879 15.2214H50.4621V18.5341H49.0062V9.44344ZM54.0953 12.7691C54.0953 12.4715 54.0567 12.1803 53.9794 11.8957C53.9021 11.611 53.7861 11.3651 53.6315 11.1451C53.4769 10.9251 53.2837 10.7504 53.0582 10.621C52.8263 10.4916 52.5622 10.4204 52.2658 10.4204C51.6539 10.4204 51.19 10.634 50.8808 11.061C50.5716 11.488 50.417 12.0574 50.417 12.7691C50.417 13.1056 50.4557 13.4162 50.5394 13.7009C50.6232 13.9855 50.7391 14.2314 50.9066 14.4385C51.0676 14.6455 51.2609 14.8073 51.4864 14.9237C51.7118 15.0467 51.976 15.1049 52.2723 15.1049C52.6073 15.1049 52.8843 15.0337 53.1162 14.8978C53.3481 14.762 53.5349 14.5808 53.683 14.3673C53.8312 14.1473 53.9407 13.9014 54.0051 13.6232C54.0631 13.345 54.0953 13.0603 54.0953 12.7691ZM56.6656 6.91357H58.1215V8.29821H56.6656V6.91357ZM56.6656 9.44344H58.1215V16.0819H56.6656V9.44344ZM59.4228 6.91357H60.8786V16.0819H59.4228V6.91357ZM65.3429 16.2631C64.8146 16.2631 64.3444 16.1725 63.9321 15.9978C63.5198 15.8231 63.172 15.5772 62.8821 15.2731C62.5986 14.9626 62.3796 14.5937 62.2314 14.1667C62.0833 13.7397 62.006 13.2673 62.006 12.7562C62.006 12.2515 62.0833 11.7857 62.2314 11.3586C62.3796 10.9316 62.5986 10.5628 62.8821 10.2522C63.1655 9.94164 63.5198 9.70225 63.9321 9.52755C64.3444 9.35285 64.8146 9.26227 65.3429 9.26227C65.8711 9.26227 66.3414 9.35285 66.7537 9.52755C67.1659 9.70225 67.5138 9.94812 67.8037 10.2522C68.0871 10.5628 68.3061 10.9316 68.4543 11.3586C68.6025 11.7857 68.6798 12.2515 68.6798 12.7562C68.6798 13.2673 68.6025 13.7397 68.4543 14.1667C68.3061 14.5937 68.0871 14.9626 67.8037 15.2731C67.5202 15.5837 67.1659 15.8231 66.7537 15.9978C66.3414 16.1725 65.8711 16.2631 65.3429 16.2631ZM65.3429 15.1049C65.665 15.1049 65.9484 15.0337 66.1868 14.8978C66.4251 14.762 66.6184 14.5808 66.773 14.3608C66.9276 14.1408 67.0371 13.8885 67.1144 13.6103C67.1853 13.332 67.2239 13.0474 67.2239 12.7562C67.2239 12.4715 67.1853 12.1933 67.1144 11.9086C67.0435 11.6239 66.9276 11.378 66.773 11.158C66.6184 10.9381 66.4251 10.7634 66.1868 10.6275C65.9484 10.4916 65.665 10.4204 65.3429 10.4204C65.0208 10.4204 64.7373 10.4916 64.499 10.6275C64.2606 10.7634 64.0674 10.9445 63.9128 11.158C63.7582 11.378 63.6487 11.6239 63.5714 11.9086C63.5005 12.1933 63.4618 12.4715 63.4618 12.7562C63.4618 13.0474 63.5005 13.332 63.5714 13.6103C63.6422 13.8885 63.7582 14.1408 63.9128 14.3608C64.0674 14.5808 64.2606 14.762 64.499 14.8978C64.7373 15.0402 65.0208 15.1049 65.3429 15.1049ZM69.1049 9.44344H70.2065V7.4506H71.6624V9.44344H72.9765V10.5369H71.6624V14.0826C71.6624 14.2379 71.6688 14.3673 71.6817 14.4838C71.6946 14.5937 71.7268 14.6908 71.7719 14.7684C71.817 14.8461 71.8878 14.9043 71.9845 14.9431C72.0811 14.982 72.2035 15.0014 72.371 15.0014C72.4741 15.0014 72.5771 15.0014 72.6802 14.9949C72.7833 14.9884 72.8863 14.9755 72.9894 14.9496V16.0819C72.8284 16.1013 72.6673 16.1143 72.5191 16.1337C72.3645 16.1531 72.2099 16.1595 72.0489 16.1595C71.6624 16.1595 71.3532 16.1207 71.1213 16.0495C70.8894 15.9784 70.7025 15.8684 70.5737 15.726C70.4384 15.5837 70.3547 15.409 70.3031 15.1955C70.258 14.982 70.2258 14.7361 70.2194 14.4643V10.5498H69.1178V9.44344H69.1049Z" fill="white"/>
<path d="M17.4769 6.91383H10.8031L8.74165 0.53418L6.6738 6.91383L0 6.90736L5.40475 10.8542L3.3369 17.2274L8.74165 13.287L14.14 17.2274L12.0786 10.8542L17.4769 6.91383Z" fill="#00B67A"/>
<path d="M12.5429 12.2974L12.0791 10.8545L8.74219 13.2873L12.5429 12.2974Z" fill="#005128"/>
</svg>
